<svg xmlns="http://www.w3.org/2000/svg" viewBox="0 0 508.79 57.1"><defs><style>.cls-1{fill:#50deff;}.cls-2{fill:#ce2178;}</style></defs><title>traveller_logo</title><g id="Camada_2" data-name="Camada 2"><g id="Camada_1-2" data-name="Camada 1"><path class="cls-1" d="M17.54,12.81H0V0H51.14V12.81H33.69V57.1H17.54Z"/><path class="cls-1" d="M82.54,41.93H73.73V57.1H57.58V0h26.1c15.58,0,25.37,8.08,25.37,21.13,0,8.4-4.08,14.6-11.17,18l12.31,18H92.9Zm.17-29.21h-9V29.45h9c6.68,0,10-3.1,10-8.32S89.39,12.72,82.71,12.72Z"/><path class="cls-1" d="M156.6,46H132.46L128,57.1H111.49L136.7,0h15.9l25.29,57.1h-16.8Zm-4.73-11.9-7.34-18.28L137.19,34.1Z"/><path class="cls-1" d="M237.59,0,213.12,57.1h-15.9L172.83,0h17.46l15.49,37.19L221.61,0Z"/><path class="cls-1" d="M287.18,44.62V57.1H241.34V0h44.78V12.48H257.33V22.1H282.7V34.18H257.33V44.62Z"/><path class="cls-1" d="M296.56,0h16.15V44.29H340V57.1H296.56Z"/><path class="cls-1" d="M346.72,0h16.15V44.29h27.24V57.1H346.72Z"/><path class="cls-1" d="M442.72,44.62V57.1H396.88V0h44.78V12.48H412.87V22.1h25.36V34.18H412.87V44.62Z"/><path class="cls-1" d="M477.06,41.93h-8.81V57.1H452.1V0h26.1c15.58,0,25.37,8.08,25.37,21.13,0,8.4-4.08,14.6-11.18,18l12.32,18h-17.3Zm.16-29.21h-9V29.45h9c6.69,0,10-3.1,10-8.32S483.91,12.72,477.22,12.72Z"/><path class="cls-2" d="M21.62,12.81H4.08V0H55.22V12.81H37.77V57.1H21.62Z"/><path class="cls-2" d="M86.62,41.93H77.81V57.1H61.66V0h26.1c15.58,0,25.37,8.08,25.37,21.13,0,8.4-4.08,14.6-11.17,18l12.31,18H97Zm.16-29.21h-9V29.45h9c6.69,0,10-3.1,10-8.32S93.47,12.72,86.78,12.72Z"/><path class="cls-2" d="M160.68,46H136.54l-4.49,11.1H115.57L140.78,0h15.9L182,57.1h-16.8ZM156,34.1l-7.34-18.28L141.27,34.1Z"/><path class="cls-2" d="M241.67,0,217.2,57.1H201.3L176.91,0h17.45l15.5,37.19L225.69,0Z"/><path class="cls-2" d="M291.26,44.62V57.1H245.42V0H290.2V12.48H261.41V22.1h25.36V34.18H261.41V44.62Z"/><path class="cls-2" d="M300.64,0h16.15V44.29H344V57.1H300.64Z"/><path class="cls-2" d="M350.8,0H367V44.29h27.24V57.1H350.8Z"/><path class="cls-2" d="M446.8,44.62V57.1H401V0h44.78V12.48h-28.8V22.1h25.37V34.18H416.94V44.62Z"/><path class="cls-2" d="M481.13,41.93h-8.81V57.1H456.17V0h26.11c15.58,0,25.36,8.08,25.36,21.13,0,8.4-4.08,14.6-11.17,18l12.32,18h-17.3Zm.17-29.21h-9V29.45h9c6.69,0,10-3.1,10-8.32S488,12.72,481.3,12.72Z"/></g></g></svg>