<svg id="svg" version="1.1" xmlns="http://www.w3.org/2000/svg" xmlns:xlink="http://www.w3.org/1999/xlink" width="400" height="400" viewBox="0, 0, 400,400"><g id="svgg"><path id="path0" d="M269.200 0.970 C 269.200 1.229,269.374 1.614,269.587 1.827 C 269.799 2.039,270.016 2.783,270.069 3.479 C 270.123 4.175,270.309 4.656,270.483 4.549 C 270.657 4.441,270.800 5.083,270.800 5.976 C 270.800 6.869,270.965 7.600,271.166 7.600 C 271.772 7.600,272.070 12.485,272.068 22.400 C 272.065 32.451,271.760 37.600,271.167 37.600 C 270.965 37.600,270.800 38.322,270.800 39.205 C 270.800 40.088,270.620 41.168,270.400 41.605 C 270.180 42.042,269.820 42.758,269.600 43.195 C 269.380 43.632,269.200 44.632,269.200 45.418 C 269.200 46.292,269.041 46.749,268.790 46.594 C 268.565 46.455,268.406 46.489,268.437 46.670 C 268.632 47.793,268.341 49.611,268.000 49.400 C 267.772 49.259,267.600 49.602,267.600 50.196 C 267.600 50.770,267.295 51.816,266.922 52.520 C 266.248 53.792,265.993 54.544,265.910 55.500 C 265.886 55.775,265.717 56.000,265.533 56.000 C 265.350 56.000,265.200 56.360,265.200 56.800 C 265.200 57.240,265.065 57.601,264.900 57.603 C 264.578 57.606,263.600 59.512,263.600 60.136 C 263.600 60.343,263.303 60.729,262.941 60.994 C 262.578 61.259,262.231 61.948,262.169 62.524 C 262.108 63.100,261.691 63.965,261.243 64.446 C 260.794 64.928,260.522 65.474,260.637 65.661 C 261.024 66.287,260.335 66.935,259.912 66.343 C 259.619 65.933,259.581 65.975,259.756 66.516 C 260.009 67.300,259.392 68.627,258.300 69.643 C 257.915 70.001,257.600 70.588,257.600 70.947 C 257.600 71.306,257.450 71.600,257.268 71.600 C 257.085 71.600,256.681 72.095,256.370 72.700 C 256.060 73.305,255.477 74.101,255.076 74.470 C 254.676 74.838,254.376 75.288,254.411 75.470 C 254.481 75.829,252.953 77.765,250.900 79.917 C 250.185 80.667,249.600 81.543,249.600 81.864 C 249.600 82.185,249.434 82.344,249.230 82.219 C 249.027 82.093,248.802 82.255,248.730 82.579 C 248.579 83.261,243.267 88.800,242.763 88.800 C 242.577 88.800,242.529 89.070,242.655 89.400 C 242.782 89.730,242.686 90.000,242.443 90.000 C 242.199 90.000,242.000 90.193,242.000 90.429 C 242.000 90.970,240.987 92.000,240.456 92.000 C 240.235 92.000,239.949 92.331,239.820 92.736 C 239.692 93.141,239.099 93.726,238.502 94.036 C 237.905 94.346,236.874 95.185,236.211 95.900 C 235.548 96.615,234.866 97.200,234.695 97.200 C 234.525 97.200,233.312 98.280,232.000 99.600 C 230.688 100.920,229.498 102.000,229.354 102.000 C 229.211 102.000,228.803 102.317,228.447 102.703 C 228.091 103.090,227.015 103.939,226.054 104.589 C 225.094 105.240,224.220 106.003,224.112 106.286 C 224.003 106.569,223.709 106.800,223.457 106.800 C 223.206 106.801,222.482 107.247,221.848 107.792 C 221.214 108.337,220.552 108.694,220.377 108.586 C 220.201 108.477,219.945 108.742,219.808 109.174 C 219.657 109.650,219.331 109.872,218.980 109.737 C 218.661 109.614,218.400 109.716,218.400 109.963 C 218.400 110.528,215.974 112.031,215.518 111.750 C 215.332 111.635,215.230 111.764,215.290 112.038 C 215.351 112.311,214.996 112.745,214.503 113.003 C 214.009 113.260,213.256 113.788,212.828 114.175 C 212.375 114.585,211.831 114.752,211.525 114.575 C 211.236 114.408,211.134 114.420,211.298 114.600 C 211.563 114.893,209.218 116.800,208.593 116.800 C 208.456 116.800,207.592 117.301,206.672 117.912 C 205.752 118.524,204.505 119.274,203.900 119.580 C 203.295 119.885,202.800 120.285,202.800 120.468 C 202.800 120.650,202.429 120.800,201.976 120.800 C 201.523 120.800,201.264 120.980,201.400 121.200 C 201.536 121.420,201.367 121.600,201.024 121.600 C 200.681 121.600,200.400 121.780,200.400 122.000 C 200.400 122.220,200.040 122.400,199.600 122.400 C 199.160 122.400,198.800 122.580,198.800 122.800 C 198.800 123.020,198.429 123.200,197.976 123.200 C 197.523 123.200,197.264 123.380,197.400 123.600 C 197.540 123.827,197.204 124.000,196.624 124.000 C 196.061 124.000,195.600 124.180,195.600 124.400 C 195.600 124.620,195.330 124.800,195.000 124.800 C 194.670 124.800,194.400 124.999,194.400 125.243 C 194.400 125.486,194.110 125.574,193.755 125.438 C 193.277 125.255,193.176 125.361,193.365 125.852 C 193.572 126.393,193.512 126.425,193.037 126.031 C 192.567 125.641,192.370 125.709,192.008 126.385 C 191.761 126.846,191.369 127.104,191.135 126.960 C 190.902 126.816,190.596 126.883,190.455 127.110 C 190.315 127.338,188.400 128.389,186.200 129.448 C 182.003 131.467,181.994 131.470,180.933 131.550 C 180.567 131.578,180.384 131.717,180.527 131.861 C 180.827 132.160,178.984 133.200,178.154 133.200 C 177.849 133.200,177.600 133.380,177.600 133.600 C 177.600 133.820,177.049 134.000,176.376 134.000 C 175.703 134.000,175.246 134.151,175.360 134.336 C 175.580 134.692,172.142 136.394,171.172 136.409 C 170.857 136.414,170.150 136.770,169.600 137.200 C 169.050 137.630,168.302 137.986,167.938 137.991 C 167.190 138.001,163.871 139.640,163.667 140.100 C 163.593 140.265,163.008 140.400,162.367 140.400 C 161.725 140.400,161.200 140.580,161.200 140.800 C 161.200 141.020,160.739 141.200,160.176 141.200 C 159.596 141.200,159.260 141.373,159.400 141.600 C 159.545 141.834,159.130 142.000,158.400 142.000 C 157.590 142.000,157.249 142.155,157.426 142.443 C 157.611 142.741,157.422 142.797,156.850 142.616 C 156.346 142.456,156.000 142.520,156.000 142.773 C 156.000 143.008,155.460 143.200,154.800 143.200 C 154.140 143.200,153.600 143.336,153.600 143.502 C 153.600 143.669,153.015 144.040,152.300 144.329 C 151.585 144.617,150.678 145.027,150.284 145.240 C 149.890 145.453,149.394 145.520,149.181 145.388 C 148.968 145.257,148.686 145.431,148.554 145.775 C 148.422 146.119,148.084 146.400,147.803 146.400 C 147.522 146.400,146.789 146.661,146.174 146.980 C 145.560 147.298,144.909 147.468,144.729 147.356 C 144.548 147.244,144.400 147.315,144.400 147.512 C 144.400 147.710,143.680 148.110,142.800 148.400 C 141.920 148.690,141.200 149.047,141.200 149.192 C 141.200 149.337,140.300 149.700,139.200 150.000 C 138.100 150.300,137.200 150.680,137.200 150.846 C 137.200 151.012,136.570 151.376,135.800 151.654 C 135.030 151.933,134.400 152.305,134.400 152.480 C 134.400 152.656,134.040 152.800,133.600 152.800 C 133.160 152.800,132.800 152.980,132.800 153.200 C 132.800 153.420,132.530 153.600,132.200 153.600 C 131.870 153.600,131.600 153.780,131.600 154.000 C 131.600 154.220,131.240 154.400,130.800 154.400 C 130.360 154.400,130.000 154.580,130.000 154.800 C 130.000 155.020,129.640 155.200,129.200 155.200 C 128.760 155.200,128.399 155.335,128.397 155.500 C 128.393 155.875,126.442 156.800,125.654 156.800 C 125.331 156.800,125.190 156.923,125.340 157.074 C 125.491 157.224,124.711 157.762,123.607 158.270 C 122.503 158.777,121.600 159.386,121.600 159.623 C 121.600 159.885,121.248 159.946,120.700 159.777 C 120.205 159.625,119.936 159.644,120.103 159.820 C 120.520 160.260,118.419 161.582,117.726 161.316 C 117.402 161.192,117.216 161.318,117.284 161.618 C 117.348 161.902,117.037 162.329,116.594 162.567 C 116.151 162.805,115.120 163.418,114.302 163.928 C 113.471 164.447,112.591 164.727,112.307 164.564 C 112.028 164.403,111.926 164.412,112.081 164.583 C 112.356 164.889,111.508 166.000,111.000 166.000 C 110.859 166.000,110.471 166.272,110.139 166.604 C 109.807 166.936,109.325 167.087,109.068 166.940 C 108.810 166.792,108.724 166.810,108.876 166.978 C 109.189 167.327,107.455 169.200,106.819 169.200 C 106.589 169.200,105.659 169.920,104.752 170.800 C 103.845 171.680,102.855 172.400,102.552 172.400 C 102.248 172.400,102.000 172.550,102.000 172.732 C 102.000 172.915,101.556 173.302,101.014 173.593 C 100.471 173.883,100.122 174.273,100.237 174.460 C 100.353 174.647,100.167 174.800,99.824 174.800 C 99.481 174.800,99.200 174.999,99.200 175.243 C 99.200 175.486,98.930 175.582,98.600 175.455 C 98.235 175.315,98.000 175.455,98.000 175.813 C 98.000 176.136,97.809 176.400,97.576 176.400 C 97.343 176.400,97.281 176.192,97.438 175.938 C 97.616 175.650,97.548 175.585,97.255 175.766 C 96.998 175.925,96.875 176.198,96.982 176.371 C 97.282 176.857,94.833 178.868,94.325 178.553 C 94.052 178.385,93.988 178.457,94.162 178.738 C 94.331 179.012,94.193 179.200,93.824 179.200 C 93.481 179.200,93.245 179.341,93.300 179.514 C 93.355 179.687,90.880 182.373,87.800 185.483 C 84.720 188.593,81.480 191.973,80.600 192.996 C 79.720 194.018,78.775 195.099,78.500 195.399 C 78.225 195.698,78.000 196.155,78.000 196.414 C 78.000 196.683,77.723 196.779,77.355 196.638 C 76.882 196.457,76.776 196.562,76.957 197.033 C 77.115 197.445,76.773 198.078,76.002 198.798 C 75.341 199.416,74.800 200.137,74.800 200.400 C 74.800 200.663,74.269 201.375,73.619 201.982 C 72.970 202.589,72.385 203.328,72.319 203.624 C 72.254 203.921,71.809 204.571,71.331 205.069 C 70.853 205.567,70.346 206.340,70.204 206.787 C 70.062 207.234,69.778 207.600,69.573 207.600 C 69.368 207.600,69.200 207.941,69.200 208.357 C 69.200 208.774,68.969 209.203,68.687 209.311 C 68.404 209.420,67.819 210.247,67.387 211.150 C 66.954 212.052,66.465 212.793,66.300 212.795 C 66.135 212.798,66.000 213.070,66.000 213.400 C 66.000 213.730,65.820 214.000,65.600 214.000 C 65.380 214.000,65.200 214.338,65.200 214.751 C 65.200 215.494,64.291 216.558,63.949 216.216 C 63.851 216.118,63.732 216.514,63.684 217.097 C 63.636 217.679,63.405 218.273,63.171 218.418 C 62.938 218.562,62.687 218.932,62.615 219.240 C 62.260 220.741,61.874 221.600,61.553 221.600 C 61.359 221.600,61.200 221.849,61.200 222.154 C 61.200 223.054,60.149 224.813,59.802 224.494 C 59.626 224.332,59.580 224.598,59.700 225.085 C 59.822 225.584,59.684 226.164,59.382 226.415 C 59.088 226.659,58.953 227.133,59.082 227.470 C 59.211 227.806,59.155 228.198,58.958 228.340 C 58.294 228.822,57.600 230.382,57.600 231.395 C 57.600 231.948,57.465 232.401,57.300 232.403 C 56.816 232.408,56.000 234.464,56.000 235.680 C 56.000 236.296,55.820 236.800,55.600 236.800 C 55.380 236.800,55.200 237.430,55.200 238.200 C 55.200 238.970,55.020 239.600,54.800 239.600 C 54.580 239.600,54.400 239.924,54.400 240.320 C 54.400 240.716,54.202 241.238,53.960 241.480 C 53.718 241.722,53.520 242.568,53.520 243.360 C 53.520 244.152,53.358 244.800,53.160 244.800 C 52.962 244.800,52.800 245.610,52.800 246.600 C 52.800 247.590,52.620 248.400,52.400 248.400 C 52.180 248.400,52.000 248.904,52.000 249.520 C 52.000 250.136,51.775 250.882,51.500 251.179 C 51.094 251.616,51.112 251.658,51.600 251.400 C 52.088 251.142,52.106 251.184,51.700 251.621 C 51.425 251.918,51.200 252.946,51.200 253.906 C 51.200 254.867,51.019 255.992,50.797 256.406 C 50.575 256.820,50.360 258.339,50.318 259.780 C 50.277 261.221,50.125 262.400,49.982 262.400 C 49.707 262.400,49.479 266.420,49.504 270.800 C 49.514 272.540,49.409 273.135,49.188 272.600 C 48.888 271.876,48.854 271.897,48.828 272.820 C 48.813 273.381,49.016 274.056,49.280 274.320 C 49.577 274.617,49.600 274.800,49.340 274.800 C 49.087 274.800,48.937 275.816,48.960 277.361 C 48.982 278.770,49.134 279.840,49.299 279.739 C 49.463 279.637,49.434 279.985,49.234 280.511 C 49.034 281.036,49.007 281.688,49.174 281.957 C 49.340 282.227,49.513 284.366,49.556 286.710 C 49.600 289.054,49.795 291.698,49.990 292.586 C 50.186 293.474,50.389 295.280,50.442 296.600 C 50.495 297.920,50.682 299.098,50.859 299.217 C 51.035 299.337,51.213 300.372,51.253 301.517 C 51.294 302.663,51.446 303.600,51.592 303.600 C 51.738 303.600,51.899 304.545,51.951 305.700 C 52.002 306.855,52.214 307.860,52.422 307.933 C 52.630 308.007,52.800 308.761,52.800 309.610 C 52.800 310.458,52.980 311.264,53.200 311.400 C 53.420 311.536,53.600 312.447,53.600 313.424 C 53.600 314.401,53.780 315.200,54.000 315.200 C 54.220 315.200,54.400 315.830,54.400 316.600 C 54.400 317.370,54.580 318.000,54.800 318.000 C 55.020 318.000,55.200 318.720,55.200 319.600 C 55.200 320.480,55.380 321.200,55.600 321.200 C 55.820 321.200,56.000 321.740,56.000 322.400 C 56.000 323.060,56.180 323.600,56.400 323.600 C 56.620 323.600,56.800 324.129,56.800 324.776 C 56.800 325.423,56.980 326.064,57.200 326.200 C 57.420 326.336,57.600 326.887,57.600 327.424 C 57.600 327.961,57.780 328.400,58.000 328.400 C 58.220 328.400,58.400 328.940,58.400 329.600 C 58.400 330.260,58.583 330.800,58.806 330.800 C 59.037 330.800,59.120 331.316,59.000 332.000 C 58.836 332.929,58.936 333.200,59.441 333.200 C 59.899 333.200,60.030 333.441,59.882 334.009 C 59.765 334.454,59.933 335.345,60.254 335.988 C 60.575 336.632,60.905 337.483,60.987 337.879 C 61.069 338.276,61.433 339.183,61.795 339.895 C 62.157 340.607,62.323 341.417,62.163 341.695 C 62.003 341.973,62.018 342.068,62.196 341.906 C 62.625 341.518,63.570 343.376,63.680 344.822 C 63.728 345.451,63.847 345.886,63.944 345.789 C 64.217 345.516,65.200 347.597,65.200 348.446 C 65.200 348.861,65.335 349.201,65.500 349.203 C 65.817 349.206,66.800 351.108,66.800 351.718 C 66.800 351.915,67.171 352.598,67.625 353.235 C 68.078 353.871,68.475 354.742,68.508 355.169 C 68.540 355.595,68.709 355.856,68.883 355.749 C 69.057 355.641,69.200 355.923,69.200 356.376 C 69.200 356.829,69.380 357.200,69.600 357.200 C 69.820 357.200,70.000 357.661,70.000 358.224 C 70.000 358.804,70.173 359.140,70.400 359.000 C 70.620 358.864,70.800 359.123,70.800 359.576 C 70.800 360.029,70.991 360.400,71.224 360.400 C 71.457 360.400,71.545 360.565,71.420 360.768 C 71.295 360.970,71.464 361.407,71.796 361.739 C 72.128 362.071,72.400 362.626,72.400 362.971 C 72.400 363.317,72.580 363.600,72.800 363.600 C 73.020 363.600,73.200 363.834,73.200 364.120 C 73.200 364.856,74.141 366.793,74.500 366.797 C 74.665 366.799,74.800 367.160,74.800 367.600 C 74.800 368.040,74.995 368.400,75.233 368.400 C 75.472 368.400,75.592 368.623,75.501 368.896 C 75.410 369.169,75.530 369.613,75.768 369.883 C 77.013 371.293,77.170 371.613,76.928 372.244 C 76.759 372.684,76.819 372.835,77.096 372.664 C 77.521 372.402,79.200 375.343,79.200 376.350 C 79.200 376.623,79.353 376.753,79.540 376.637 C 79.727 376.522,80.108 376.916,80.386 377.514 C 80.665 378.111,81.084 378.960,81.318 379.400 C 81.551 379.840,81.935 380.563,82.171 381.008 C 82.619 381.852,83.977 381.898,84.031 381.071 C 84.047 380.812,84.144 380.240,84.245 379.800 C 84.345 379.360,84.607 377.560,84.825 375.800 C 85.356 371.525,85.889 367.925,86.602 363.800 C 86.678 363.360,86.772 363.000,86.811 363.000 C 86.850 363.000,86.967 361.830,87.071 360.400 C 87.175 358.970,87.428 357.740,87.633 357.666 C 87.838 357.592,87.925 357.402,87.827 357.244 C 87.729 357.085,87.834 356.246,88.061 355.378 C 88.287 354.510,88.629 352.900,88.821 351.800 C 89.574 347.472,90.133 344.646,90.522 343.200 C 90.833 342.046,91.146 340.437,91.476 338.290 C 91.603 337.460,91.864 336.684,92.054 336.567 C 92.244 336.449,92.400 335.553,92.400 334.576 C 92.400 333.599,92.580 332.800,92.800 332.800 C 93.020 332.800,93.200 332.080,93.200 331.200 C 93.200 330.320,93.380 329.600,93.600 329.600 C 93.820 329.600,94.000 328.970,94.000 328.200 C 94.000 327.430,94.180 326.800,94.400 326.800 C 94.620 326.800,94.800 326.260,94.800 325.600 C 94.800 324.940,94.980 324.400,95.200 324.400 C 95.420 324.400,95.600 323.669,95.600 322.776 C 95.600 321.883,95.760 321.252,95.955 321.372 C 96.290 321.579,96.531 320.779,97.063 317.696 C 97.187 316.979,97.449 316.294,97.644 316.173 C 97.840 316.052,98.000 315.413,98.000 314.753 C 98.000 314.055,98.167 313.656,98.400 313.800 C 98.638 313.947,98.800 313.479,98.800 312.647 C 98.800 311.877,98.980 311.136,99.200 311.000 C 99.420 310.864,99.600 310.313,99.600 309.776 C 99.600 309.239,99.747 308.800,99.928 308.800 C 100.108 308.800,100.504 307.889,100.807 306.775 C 101.110 305.661,101.503 304.660,101.679 304.551 C 101.856 304.442,102.000 303.995,102.000 303.557 C 102.000 303.119,102.360 302.016,102.800 301.106 C 103.240 300.195,103.600 299.134,103.600 298.748 C 103.600 298.363,103.780 297.936,104.000 297.800 C 104.220 297.664,104.400 297.203,104.400 296.776 C 104.400 296.349,104.580 296.000,104.800 296.000 C 105.020 296.000,105.202 295.685,105.204 295.300 C 105.206 294.915,105.648 293.655,106.186 292.500 C 106.723 291.345,107.054 290.400,106.920 290.400 C 106.786 290.400,107.002 290.040,107.400 289.600 C 107.798 289.160,107.984 288.800,107.813 288.800 C 107.642 288.800,107.688 288.575,107.915 288.300 C 108.142 288.025,108.455 287.123,108.610 286.296 C 108.764 285.468,109.050 284.693,109.245 284.572 C 109.440 284.451,109.600 284.003,109.600 283.576 C 109.600 283.149,109.780 282.800,110.000 282.800 C 110.220 282.800,110.400 282.530,110.400 282.200 C 110.400 281.870,110.580 281.600,110.800 281.600 C 111.020 281.600,111.200 281.184,111.200 280.675 C 111.200 280.167,111.567 279.357,112.016 278.875 C 112.470 278.387,112.620 278.000,112.354 278.000 C 112.092 278.000,112.220 277.685,112.639 277.300 C 113.057 276.915,113.461 276.240,113.537 275.800 C 113.612 275.360,113.837 274.940,114.037 274.867 C 114.236 274.793,114.400 274.298,114.400 273.767 C 114.400 273.235,114.580 272.800,114.800 272.800 C 115.020 272.800,115.200 272.530,115.200 272.200 C 115.200 271.870,115.380 271.600,115.600 271.600 C 115.820 271.600,116.000 271.255,116.000 270.833 C 116.000 270.412,116.166 270.007,116.370 269.933 C 116.573 269.860,116.798 269.537,116.870 269.216 C 116.941 268.894,117.315 268.275,117.700 267.840 C 118.085 267.405,118.400 266.757,118.400 266.400 C 118.400 266.043,118.760 265.364,119.200 264.892 C 119.640 264.420,120.000 263.756,120.000 263.417 C 120.000 263.078,120.135 262.799,120.300 262.797 C 120.465 262.795,120.791 262.390,121.025 261.897 C 122.420 258.949,124.182 256.065,124.477 256.248 C 124.666 256.364,124.780 256.311,124.731 256.130 C 124.577 255.563,125.235 254.000,125.627 254.000 C 125.832 254.000,126.000 253.640,126.000 253.200 C 126.000 252.760,126.180 252.400,126.400 252.400 C 126.620 252.400,126.800 252.130,126.800 251.800 C 126.800 251.470,126.980 251.200,127.200 251.200 C 127.420 251.200,127.600 250.932,127.600 250.603 C 127.600 250.275,127.960 249.782,128.400 249.507 C 128.840 249.232,129.200 248.691,129.200 248.304 C 129.200 247.917,129.380 247.600,129.600 247.600 C 129.820 247.600,130.000 247.421,130.000 247.203 C 130.000 246.985,130.378 246.371,130.841 245.839 C 131.304 245.307,131.652 244.752,131.615 244.605 C 131.578 244.459,131.919 244.017,132.374 243.623 C 132.828 243.229,133.200 242.612,133.200 242.253 C 133.200 241.894,133.458 241.600,133.773 241.600 C 134.088 241.600,134.460 241.240,134.600 240.800 C 134.740 240.360,135.022 240.000,135.227 240.000 C 135.432 240.000,135.600 239.646,135.600 239.213 C 135.600 238.674,135.791 238.499,136.205 238.657 C 136.654 238.829,136.739 238.707,136.537 238.179 C 136.384 237.782,136.426 237.568,136.632 237.694 C 136.834 237.818,137.719 236.857,138.598 235.559 C 139.476 234.262,140.432 233.200,140.721 233.200 C 141.011 233.200,141.136 233.020,141.000 232.800 C 140.864 232.580,140.930 232.400,141.147 232.400 C 141.364 232.400,141.600 232.133,141.671 231.807 C 141.922 230.656,153.997 218.000,154.844 218.000 C 155.113 218.000,155.213 217.880,155.066 217.732 C 154.761 217.427,155.934 216.000,156.491 216.000 C 156.962 216.000,158.042 214.925,157.983 214.514 C 157.959 214.341,158.258 214.020,158.650 213.800 C 159.041 213.580,160.213 212.545,161.255 211.500 C 162.296 210.455,163.340 209.600,163.574 209.600 C 163.808 209.600,164.000 209.420,164.000 209.200 C 164.000 208.980,164.270 208.800,164.600 208.800 C 164.930 208.800,165.200 208.620,165.200 208.400 C 165.200 208.180,165.374 208.000,165.586 208.000 C 165.799 208.000,166.530 207.455,167.211 206.789 C 167.892 206.123,169.203 205.090,170.125 204.493 C 171.046 203.896,171.890 203.295,172.000 203.158 C 172.110 203.020,172.601 202.783,173.092 202.630 C 173.582 202.476,173.966 202.227,173.945 202.076 C 173.834 201.299,174.056 201.068,174.400 201.600 C 174.743 202.131,174.788 202.129,174.794 201.589 C 174.800 200.928,175.908 199.881,176.825 199.668 C 177.137 199.595,177.526 199.325,177.690 199.068 C 177.854 198.811,177.996 198.780,178.006 199.000 C 178.016 199.220,178.208 199.085,178.432 198.700 C 178.656 198.315,179.018 198.000,179.237 198.000 C 179.455 198.000,179.989 197.669,180.423 197.264 C 180.858 196.859,181.705 196.274,182.307 195.964 C 182.908 195.654,183.749 195.085,184.175 194.700 C 184.602 194.315,185.150 194.000,185.394 194.000 C 185.638 194.000,186.814 193.384,188.008 192.631 C 189.201 191.879,190.318 191.349,190.489 191.455 C 190.660 191.561,190.800 191.484,190.800 191.284 C 190.800 190.959,193.265 189.799,194.155 189.706 C 194.351 189.685,194.621 189.517,194.755 189.332 C 195.115 188.837,200.020 186.400,200.656 186.400 C 200.955 186.400,201.200 186.220,201.200 186.000 C 201.200 185.780,201.680 185.600,202.267 185.600 C 202.853 185.600,203.212 185.478,203.063 185.330 C 202.731 184.998,205.452 184.014,206.724 184.006 C 207.236 184.003,207.537 183.822,207.400 183.600 C 207.264 183.380,207.523 183.200,207.976 183.200 C 208.429 183.200,208.801 183.065,208.803 182.900 C 208.808 182.459,210.819 181.600,211.846 181.600 C 212.334 181.600,212.793 181.422,212.867 181.203 C 212.940 180.985,213.482 180.767,214.071 180.719 C 214.660 180.670,215.055 180.488,214.948 180.315 C 214.840 180.142,215.393 180.000,216.176 180.000 C 216.959 180.000,217.600 179.820,217.600 179.600 C 217.600 179.380,218.050 179.200,218.600 179.200 C 219.150 179.200,219.600 179.020,219.600 178.800 C 219.600 178.580,220.241 178.400,221.024 178.400 C 221.871 178.400,222.347 178.238,222.200 178.000 C 222.057 177.769,222.427 177.605,223.076 177.612 C 224.120 177.623,224.143 177.657,223.400 178.081 C 222.960 178.332,221.880 178.965,221.000 179.487 C 220.120 180.008,219.085 180.538,218.700 180.664 C 218.315 180.790,218.000 181.052,218.000 181.247 C 218.000 181.441,217.668 181.600,217.262 181.600 C 216.856 181.600,216.198 181.960,215.800 182.400 C 215.402 182.840,214.926 183.200,214.743 183.200 C 214.425 183.200,213.325 184.017,212.184 185.100 C 211.894 185.375,211.504 185.600,211.317 185.600 C 211.130 185.600,210.729 185.944,210.426 186.364 C 210.124 186.784,209.665 187.046,209.406 186.947 C 209.148 186.848,208.593 187.224,208.174 187.783 C 207.754 188.343,207.082 188.800,206.681 188.800 C 206.281 188.800,206.064 188.980,206.200 189.200 C 206.336 189.420,206.239 189.600,205.984 189.600 C 205.729 189.600,205.014 190.142,204.395 190.805 C 203.643 191.610,203.202 191.842,203.067 191.505 C 202.943 191.197,202.851 191.274,202.832 191.700 C 202.814 192.085,202.524 192.400,202.187 192.400 C 201.851 192.400,201.467 192.680,201.336 193.023 C 201.204 193.366,200.852 193.552,200.553 193.437 C 200.254 193.323,200.052 193.422,200.105 193.658 C 200.157 193.894,199.355 194.652,198.322 195.343 C 197.289 196.035,196.434 196.825,196.422 197.100 C 196.410 197.375,196.209 197.600,195.976 197.600 C 195.743 197.600,195.681 197.392,195.838 197.138 C 196.016 196.850,195.948 196.785,195.655 196.966 C 195.398 197.125,195.273 197.394,195.378 197.564 C 195.638 197.986,193.017 200.483,192.674 200.140 C 192.523 199.990,192.400 200.078,192.400 200.336 C 192.400 200.772,188.979 204.400,188.568 204.400 C 188.178 204.400,184.000 208.804,184.000 209.215 C 184.000 209.453,183.819 209.535,183.597 209.398 C 183.376 209.261,183.078 209.453,182.935 209.824 C 182.793 210.195,182.209 210.996,181.638 211.603 C 181.067 212.211,179.430 213.942,178.000 215.452 C 176.570 216.961,175.447 218.338,175.505 218.511 C 175.562 218.685,175.170 219.266,174.634 219.803 C 174.097 220.339,173.336 221.323,172.942 221.990 C 172.549 222.656,171.906 223.303,171.513 223.427 C 171.121 223.552,170.800 223.893,170.800 224.184 C 170.800 224.476,170.519 224.822,170.175 224.954 C 169.831 225.086,169.664 225.380,169.804 225.607 C 169.945 225.834,169.889 225.970,169.681 225.910 C 169.473 225.849,168.344 227.240,167.172 229.000 C 166.000 230.760,164.937 232.290,164.809 232.400 C 164.681 232.510,163.879 233.590,163.027 234.800 C 162.174 236.010,161.324 237.060,161.138 237.133 C 160.952 237.207,160.800 237.500,160.800 237.784 C 160.800 238.069,160.541 238.517,160.224 238.780 C 159.907 239.043,159.758 239.547,159.893 239.899 C 160.076 240.374,159.968 240.473,159.474 240.284 C 159.109 240.144,158.829 240.157,158.852 240.314 C 159.000 241.307,158.663 242.112,157.678 243.120 C 157.061 243.751,156.626 244.478,156.711 244.734 C 156.797 244.990,156.672 245.200,156.433 245.200 C 156.195 245.200,156.000 245.483,156.000 245.829 C 156.000 246.609,154.995 247.662,154.614 247.281 C 154.460 247.126,154.389 247.180,154.456 247.400 C 154.615 247.920,153.496 250.400,153.102 250.400 C 152.936 250.400,152.800 250.760,152.800 251.200 C 152.800 251.640,152.620 252.000,152.400 252.000 C 152.180 252.000,152.000 252.320,152.000 252.712 C 152.000 253.103,151.640 253.683,151.200 254.000 C 150.760 254.317,150.400 254.897,150.400 255.288 C 150.400 255.680,150.209 256.000,149.976 256.000 C 149.743 256.000,149.655 256.165,149.780 256.368 C 149.905 256.570,149.736 257.007,149.404 257.339 C 149.072 257.671,148.800 258.206,148.800 258.529 C 148.800 258.851,148.533 259.217,148.207 259.342 C 147.869 259.472,147.715 259.835,147.850 260.185 C 147.979 260.523,147.886 260.800,147.643 260.800 C 147.399 260.800,147.200 261.177,147.200 261.637 C 147.200 262.116,146.883 262.558,146.458 262.669 C 145.956 262.800,145.750 263.169,145.821 263.813 C 145.879 264.336,145.703 264.949,145.430 265.175 C 145.158 265.401,144.597 266.579,144.184 267.793 C 143.772 269.007,143.207 270.000,142.930 270.000 C 142.652 270.000,142.523 270.255,142.643 270.568 C 142.763 270.880,142.576 271.569,142.229 272.100 C 141.882 272.630,141.718 273.184,141.865 273.332 C 142.013 273.479,141.923 273.600,141.667 273.600 C 141.410 273.600,141.200 273.973,141.200 274.429 C 141.200 274.884,140.928 275.529,140.596 275.861 C 140.264 276.193,140.095 276.630,140.220 276.832 C 140.345 277.035,140.257 277.200,140.024 277.200 C 139.791 277.200,139.600 277.751,139.600 278.424 C 139.600 279.137,139.433 279.544,139.200 279.400 C 138.980 279.264,138.800 279.513,138.800 279.953 C 138.800 280.393,138.620 280.864,138.400 281.000 C 138.180 281.136,138.000 281.676,138.000 282.200 C 138.000 282.724,137.820 283.264,137.600 283.400 C 137.380 283.536,137.200 284.007,137.200 284.447 C 137.200 284.887,137.020 285.136,136.800 285.000 C 136.567 284.856,136.400 285.255,136.400 285.953 C 136.400 286.613,136.220 287.264,136.000 287.400 C 135.780 287.536,135.600 288.087,135.600 288.624 C 135.600 289.161,135.420 289.600,135.200 289.600 C 134.980 289.600,134.800 290.061,134.800 290.624 C 134.800 291.204,134.627 291.540,134.400 291.400 C 134.180 291.264,133.977 291.433,133.950 291.776 C 133.877 292.686,133.813 292.954,133.565 293.400 C 133.442 293.620,133.112 294.610,132.832 295.600 C 132.551 296.590,132.160 297.713,131.961 298.095 C 131.762 298.477,131.600 299.242,131.600 299.795 C 131.600 300.348,131.420 300.800,131.200 300.800 C 130.980 300.800,130.800 301.162,130.800 301.605 C 130.800 302.048,130.635 302.723,130.434 303.105 C 130.232 303.487,129.674 305.125,129.192 306.744 C 128.200 310.080,128.222 309.990,127.800 312.332 C 127.575 313.577,127.381 313.915,127.111 313.532 C 126.860 313.179,126.805 313.515,126.947 314.535 C 127.105 315.667,127.029 316.020,126.659 315.878 C 126.302 315.741,126.181 316.140,126.239 317.271 C 126.288 318.232,126.124 318.931,125.822 319.047 C 125.501 319.170,125.380 319.800,125.482 320.819 C 125.576 321.757,125.469 322.400,125.220 322.400 C 124.989 322.400,124.800 323.041,124.800 323.824 C 124.800 324.694,124.641 325.149,124.390 324.994 C 124.165 324.855,124.006 324.889,124.037 325.070 C 124.256 326.330,123.936 329.208,123.600 329.000 C 123.356 328.849,123.200 329.463,123.200 330.576 C 123.200 331.579,123.037 332.400,122.839 332.400 C 122.640 332.400,122.375 333.255,122.249 334.300 C 121.633 339.436,121.496 340.228,121.161 340.580 C 120.963 340.789,120.800 341.723,120.800 342.656 C 120.800 343.589,120.620 344.464,120.400 344.600 C 120.180 344.736,120.000 345.791,120.000 346.944 C 120.000 348.097,119.837 349.211,119.637 349.420 C 119.288 349.785,119.166 350.585,118.455 357.200 C 118.278 358.850,118.072 359.840,117.999 359.400 C 117.863 358.592,117.414 362.630,116.963 368.698 C 116.790 371.023,116.583 371.915,116.259 371.721 C 116.007 371.570,116.070 371.786,116.400 372.200 C 116.817 372.724,116.837 372.856,116.467 372.633 C 116.093 372.408,115.958 372.534,116.014 373.056 C 116.268 375.460,115.969 378.430,115.500 378.165 C 115.100 377.939,115.100 377.990,115.500 378.421 C 116.147 379.118,116.147 379.735,115.500 379.347 C 115.160 379.143,115.176 379.263,115.549 379.723 C 115.851 380.095,115.915 380.400,115.691 380.400 C 115.441 380.400,115.262 382.254,115.226 385.216 C 115.194 387.864,115.026 390.429,114.851 390.916 C 113.484 394.731,114.661 396.001,118.104 394.423 C 119.037 393.996,121.510 392.937,123.600 392.071 C 135.002 387.343,149.209 380.100,162.800 372.086 C 172.362 366.448,197.011 349.607,199.200 347.217 C 199.310 347.096,200.750 345.924,202.400 344.612 C 221.641 329.306,242.933 307.711,258.019 288.200 C 261.174 284.120,262.136 282.837,266.339 277.100 C 270.039 272.050,281.200 255.144,281.200 254.590 C 281.200 254.518,282.091 253.008,283.179 251.234 C 288.170 243.102,296.185 227.529,301.158 216.300 C 301.621 215.255,302.344 213.635,302.764 212.700 C 305.977 205.549,313.999 183.518,315.617 177.400 C 315.791 176.740,316.491 174.310,317.172 172.000 C 319.509 164.071,323.574 146.629,324.769 139.400 C 324.988 138.080,325.355 135.920,325.585 134.600 C 326.114 131.562,327.081 124.813,327.619 120.400 C 327.847 118.530,328.317 115.061,328.662 112.692 C 329.325 108.147,329.149 107.028,327.153 103.105 C 326.959 102.723,326.800 102.048,326.800 101.605 C 326.800 101.162,326.620 100.800,326.400 100.800 C 326.180 100.800,326.000 100.350,326.000 99.800 C 326.000 99.250,325.820 98.800,325.600 98.800 C 325.380 98.800,325.199 98.485,325.199 98.100 C 325.198 97.715,324.840 96.815,324.404 96.100 C 323.968 95.385,323.727 94.800,323.868 94.800 C 324.009 94.800,323.804 94.447,323.413 94.015 C 323.023 93.583,322.809 92.953,322.939 92.615 C 323.088 92.227,322.949 92.000,322.564 92.000 C 322.223 92.000,322.072 91.806,322.224 91.562 C 322.373 91.321,322.311 90.736,322.088 90.262 C 321.864 89.788,321.456 88.770,321.182 88.000 C 320.608 86.387,318.329 81.497,318.013 81.200 C 317.551 80.766,316.800 79.180,316.800 78.639 C 316.800 78.324,316.575 77.975,316.300 77.864 C 315.914 77.707,315.926 77.573,316.353 77.274 C 316.796 76.964,316.736 76.834,316.053 76.617 C 315.570 76.464,315.200 76.011,315.200 75.573 C 315.200 75.148,315.020 74.800,314.800 74.800 C 314.580 74.800,314.400 74.440,314.400 74.000 C 314.400 73.560,314.220 73.200,314.000 73.200 C 313.780 73.200,313.600 72.840,313.600 72.400 C 313.600 71.960,313.420 71.600,313.200 71.600 C 312.980 71.600,312.800 71.240,312.800 70.800 C 312.800 70.360,312.620 70.000,312.400 70.000 C 312.180 70.000,312.000 69.449,312.000 68.776 C 312.000 68.063,311.833 67.656,311.600 67.800 C 311.380 67.936,311.200 67.764,311.200 67.418 C 311.200 67.072,311.035 66.477,310.833 66.095 C 310.632 65.713,310.250 64.815,309.985 64.100 C 309.720 63.385,309.345 62.800,309.151 62.800 C 308.958 62.800,308.800 62.530,308.800 62.200 C 308.800 61.870,308.620 61.600,308.400 61.600 C 308.180 61.600,308.000 61.280,308.000 60.888 C 308.000 60.497,307.640 59.917,307.200 59.600 C 306.760 59.283,306.400 58.714,306.400 58.335 C 306.400 57.957,306.217 57.534,305.993 57.396 C 305.770 57.258,305.691 56.977,305.817 56.772 C 305.944 56.568,305.852 56.400,305.614 56.400 C 305.231 56.400,304.417 54.909,304.195 53.800 C 303.944 52.548,303.464 51.637,303.155 51.828 C 302.960 51.949,302.800 51.467,302.800 50.757 C 302.800 50.047,302.683 49.584,302.539 49.727 C 302.240 50.027,301.200 48.184,301.200 47.354 C 301.200 47.049,301.020 46.800,300.800 46.800 C 300.580 46.800,300.400 46.530,300.400 46.200 C 300.400 45.870,300.220 45.600,300.000 45.600 C 299.780 45.600,299.600 45.229,299.600 44.776 C 299.600 44.295,299.423 44.062,299.173 44.217 C 298.929 44.367,298.801 44.222,298.873 43.878 C 298.943 43.547,298.567 42.899,298.039 42.438 C 297.510 41.977,297.204 41.600,297.359 41.600 C 297.514 41.600,297.182 40.998,296.620 40.262 C 296.059 39.526,295.600 38.716,295.600 38.462 C 295.600 38.208,295.420 38.000,295.200 38.000 C 294.980 38.000,294.800 37.640,294.800 37.200 C 294.800 36.760,294.620 36.400,294.400 36.400 C 294.180 36.400,294.000 36.145,294.000 35.833 C 294.000 35.522,293.812 35.204,293.582 35.127 C 293.352 35.051,293.135 34.594,293.098 34.111 C 293.062 33.629,292.954 33.313,292.857 33.409 C 292.761 33.505,292.286 32.733,291.801 31.692 C 291.316 30.651,290.262 28.943,289.460 27.897 C 288.657 26.850,288.000 25.849,288.000 25.672 C 288.000 25.495,287.685 24.993,287.300 24.555 C 286.915 24.117,286.375 23.363,286.100 22.880 C 285.825 22.396,285.375 21.604,285.100 21.120 C 284.825 20.637,284.285 19.883,283.900 19.445 C 283.515 19.007,283.200 18.484,283.200 18.282 C 283.200 17.976,281.106 15.061,280.410 14.400 C 280.189 14.190,279.381 12.816,278.590 11.306 C 278.332 10.814,277.975 10.544,277.797 10.706 C 277.618 10.868,277.584 10.690,277.720 10.311 C 277.856 9.931,277.744 9.481,277.473 9.311 C 277.201 9.140,276.358 8.190,275.600 7.200 C 274.841 6.210,274.055 5.283,273.852 5.140 C 273.649 4.998,273.590 4.602,273.721 4.261 C 273.874 3.862,273.778 3.710,273.451 3.836 C 273.149 3.952,272.572 3.312,272.034 2.266 C 271.156 0.558,269.200 -0.336,269.200 0.970 M97.800 31.201 C 97.360 31.390,96.156 31.556,95.124 31.572 C 94.092 31.587,93.136 31.780,93.000 32.000 C 92.864 32.220,92.328 32.400,91.810 32.400 C 91.291 32.400,90.804 32.588,90.727 32.818 C 90.651 33.048,90.198 33.265,89.722 33.301 C 89.245 33.337,88.944 33.509,89.051 33.683 C 89.159 33.857,89.048 34.000,88.805 34.000 C 88.562 34.000,87.927 34.437,87.393 34.971 C 86.859 35.505,85.877 36.264,85.211 36.657 C 84.545 37.051,84.000 37.604,84.000 37.886 C 84.000 38.169,83.820 38.400,83.600 38.400 C 83.380 38.400,83.197 38.715,83.194 39.100 C 83.189 39.698,83.131 39.713,82.800 39.200 C 82.467 38.685,82.411 38.698,82.406 39.288 C 82.400 39.968,81.063 42.645,80.362 43.380 C 80.163 43.589,80.000 44.163,80.000 44.656 C 80.000 45.149,79.820 45.664,79.600 45.800 C 79.380 45.936,79.200 47.027,79.200 48.224 C 79.200 49.421,79.059 50.400,78.886 50.400 C 78.713 50.400,78.571 50.760,78.571 51.200 C 78.571 51.640,78.713 52.000,78.886 52.000 C 79.059 52.000,79.200 52.979,79.200 54.176 C 79.200 55.373,79.380 56.464,79.600 56.600 C 79.820 56.736,80.000 57.366,80.000 58.000 C 80.000 58.634,80.159 59.251,80.354 59.371 C 80.548 59.491,81.078 60.378,81.530 61.341 C 82.420 63.234,87.333 68.400,88.244 68.400 C 88.550 68.400,88.800 68.559,88.800 68.753 C 88.800 68.948,89.115 69.200,89.500 69.313 C 89.885 69.427,91.424 69.975,92.919 70.531 C 95.704 71.567,103.311 71.992,103.837 71.141 C 103.952 70.953,104.577 70.800,105.224 70.800 C 105.871 70.800,106.400 70.664,106.400 70.498 C 106.400 70.207,108.886 68.953,109.108 69.131 C 109.168 69.178,109.706 68.763,110.304 68.209 C 110.902 67.654,111.529 67.200,111.697 67.200 C 112.095 67.200,115.200 63.902,115.200 63.479 C 115.200 63.299,115.408 63.281,115.662 63.438 C 115.936 63.607,116.015 63.549,115.858 63.294 C 115.712 63.058,115.864 62.593,116.196 62.261 C 116.528 61.929,116.800 61.374,116.800 61.029 C 116.800 60.683,116.980 60.400,117.200 60.400 C 117.420 60.400,117.600 60.051,117.600 59.624 C 117.600 59.197,117.780 58.736,118.000 58.600 C 118.220 58.464,118.400 57.913,118.400 57.376 C 118.400 56.839,118.560 56.400,118.755 56.400 C 119.193 56.400,119.356 47.374,118.930 46.692 C 118.761 46.421,118.572 45.840,118.510 45.400 C 118.373 44.439,116.724 41.055,116.300 40.867 C 116.135 40.793,116.000 40.560,116.000 40.348 C 116.000 40.137,115.595 39.544,115.100 39.032 C 114.605 38.520,113.915 37.763,113.567 37.350 C 111.891 35.361,108.890 33.200,107.805 33.200 C 107.472 33.200,107.200 33.020,107.200 32.800 C 107.200 32.580,106.786 32.400,106.280 32.400 C 105.774 32.400,105.189 32.238,104.980 32.041 C 104.771 31.844,103.880 31.586,103.000 31.469 C 102.120 31.351,100.770 31.166,100.000 31.057 C 99.230 30.948,98.240 31.013,97.800 31.201 M209.325 42.314 C 209.064 42.480,208.215 42.586,207.439 42.550 C 206.663 42.513,205.836 42.716,205.600 43.000 C 205.364 43.285,204.817 43.425,204.385 43.312 C 203.953 43.199,203.600 43.304,203.600 43.545 C 203.600 44.013,200.424 45.823,199.870 45.671 C 199.689 45.621,199.655 45.765,199.794 45.990 C 199.933 46.216,199.756 46.400,199.400 46.400 C 199.044 46.400,198.847 46.553,198.963 46.740 C 199.078 46.927,198.735 47.314,198.200 47.600 C 197.665 47.886,197.322 48.273,197.437 48.460 C 197.553 48.647,197.367 48.800,197.024 48.800 C 196.681 48.800,196.394 49.115,196.387 49.500 C 196.370 50.425,195.408 51.666,194.996 51.294 C 194.818 51.132,194.792 51.210,194.940 51.468 C 195.087 51.725,194.981 52.175,194.704 52.468 C 194.427 52.760,194.138 53.540,194.061 54.200 C 193.985 54.860,193.751 55.609,193.542 55.864 C 193.089 56.417,193.040 65.637,193.488 65.969 C 193.843 66.232,194.859 68.753,194.904 69.482 C 194.920 69.748,195.070 69.880,195.238 69.777 C 195.405 69.673,195.670 69.996,195.825 70.494 C 195.981 70.992,196.534 71.830,197.054 72.355 C 197.574 72.880,198.000 73.555,198.000 73.855 C 198.000 74.155,198.236 74.400,198.525 74.400 C 198.813 74.400,199.436 74.760,199.908 75.200 C 200.380 75.640,200.954 76.000,201.183 76.000 C 201.412 76.000,201.600 76.180,201.600 76.400 C 201.600 76.620,201.960 76.800,202.400 76.800 C 202.840 76.800,203.201 76.935,203.203 77.100 C 203.208 77.584,205.264 78.400,206.480 78.400 C 207.096 78.400,207.600 78.592,207.600 78.826 C 207.600 79.111,208.956 79.192,211.700 79.072 C 216.178 78.876,218.400 78.505,218.400 77.955 C 218.400 77.760,218.715 77.596,219.100 77.591 C 219.485 77.586,220.250 77.230,220.800 76.800 C 221.350 76.370,221.966 76.014,222.168 76.009 C 222.800 75.994,227.600 70.844,227.600 70.182 C 227.600 69.836,227.780 69.664,228.000 69.800 C 228.226 69.940,228.400 69.612,228.400 69.047 C 228.400 68.497,228.580 67.936,228.800 67.800 C 229.020 67.664,229.200 67.103,229.200 66.553 C 229.200 66.003,229.360 65.652,229.556 65.773 C 229.756 65.896,229.940 63.897,229.974 61.231 C 230.012 58.286,229.876 56.371,229.618 56.211 C 229.388 56.069,229.200 55.423,229.200 54.776 C 229.200 54.129,229.020 53.600,228.800 53.600 C 228.580 53.600,228.400 53.139,228.400 52.576 C 228.400 51.996,228.227 51.660,228.000 51.800 C 227.780 51.936,227.600 51.716,227.600 51.312 C 227.600 50.907,227.240 50.317,226.800 50.000 C 226.360 49.683,226.000 49.193,226.000 48.912 C 226.000 48.630,225.832 48.400,225.627 48.400 C 225.422 48.400,225.143 48.049,225.006 47.620 C 224.870 47.192,224.406 46.729,223.974 46.592 C 223.518 46.447,223.302 46.144,223.458 45.871 C 223.607 45.612,223.585 45.530,223.409 45.688 C 223.234 45.847,222.592 45.622,221.983 45.188 C 221.375 44.755,220.701 44.400,220.487 44.400 C 220.273 44.400,219.867 44.122,219.585 43.782 C 219.303 43.442,218.842 43.252,218.562 43.359 C 218.281 43.467,217.983 43.348,217.898 43.095 C 217.814 42.843,216.906 42.616,215.880 42.592 C 214.853 42.567,213.891 42.424,213.740 42.274 C 213.371 41.904,209.920 41.936,209.325 42.314 M158.200 89.200 C 158.348 89.439,157.853 89.600,156.970 89.600 C 155.465 89.600,153.602 91.106,153.600 92.324 C 153.600 92.612,153.420 92.736,153.200 92.600 C 152.758 92.327,152.609 93.877,152.776 97.000 C 152.835 98.100,153.044 99.060,153.241 99.133 C 153.439 99.207,153.600 99.449,153.600 99.673 C 153.600 100.265,156.022 102.434,156.413 102.192 C 156.595 102.079,156.858 102.170,156.996 102.393 C 158.176 104.303,163.678 102.027,165.500 98.876 C 166.223 97.626,166.155 93.026,165.404 92.404 C 165.077 92.132,164.925 91.722,165.066 91.493 C 165.208 91.264,165.135 91.193,164.904 91.336 C 164.673 91.479,164.381 91.326,164.254 90.998 C 164.128 90.669,163.749 90.400,163.413 90.400 C 163.076 90.400,162.800 90.220,162.800 90.000 C 162.800 89.780,162.260 89.600,161.600 89.600 C 160.940 89.600,160.400 89.420,160.400 89.200 C 160.400 88.980,159.849 88.800,159.176 88.800 C 158.463 88.800,158.056 88.967,158.200 89.200 M105.000 117.200 C 104.864 117.420,104.310 117.600,103.768 117.600 C 102.726 117.600,99.600 119.453,99.600 120.070 C 99.600 120.270,99.240 120.820,98.800 121.292 C 98.353 121.771,97.971 122.780,97.934 123.575 C 97.803 126.414,98.097 128.955,98.617 129.474 C 98.909 129.766,99.251 130.319,99.378 130.702 C 100.055 132.753,108.400 135.460,108.400 133.628 C 108.400 133.393,108.773 133.200,109.229 133.200 C 109.684 133.200,110.329 132.928,110.661 132.596 C 110.993 132.264,111.414 132.085,111.598 132.199 C 111.781 132.312,112.170 131.864,112.463 131.202 C 112.756 130.541,113.131 130.000,113.298 130.000 C 113.464 130.000,113.600 129.719,113.600 129.376 C 113.600 129.033,113.756 128.849,113.946 128.967 C 114.136 129.084,114.325 127.655,114.366 125.790 C 114.414 123.639,114.287 122.400,114.021 122.400 C 113.789 122.400,113.600 122.040,113.600 121.600 C 113.600 121.160,113.420 120.800,113.200 120.800 C 112.980 120.800,112.786 120.395,112.768 119.900 C 112.751 119.405,112.647 119.221,112.538 119.492 C 112.406 119.817,111.910 119.582,111.069 118.794 C 110.314 118.085,109.365 117.603,108.724 117.602 C 108.132 117.601,107.536 117.420,107.400 117.200 C 107.264 116.980,106.724 116.800,106.200 116.800 C 105.676 116.800,105.136 116.980,105.000 117.200 " stroke="none" fill="#01bf70" fill-rule="evenodd"></path><path id="path1" d="M271.200 0.534 C 271.200 1.017,272.985 4.000,273.274 4.000 C 273.453 4.000,273.600 4.188,273.600 4.417 C 273.600 4.646,273.971 5.231,274.424 5.717 L 275.247 6.600 274.924 5.735 C 274.746 5.259,274.105 4.316,273.500 3.638 C 272.895 2.961,272.400 2.213,272.400 1.975 C 272.400 1.737,272.130 1.273,271.800 0.943 C 271.470 0.613,271.200 0.429,271.200 0.534 M270.108 4.820 C 270.077 5.240,270.219 5.688,270.425 5.816 C 270.631 5.943,270.800 5.687,270.800 5.247 C 270.800 4.204,270.184 3.823,270.108 4.820 M270.800 8.200 C 270.800 8.530,270.980 8.800,271.200 8.800 C 271.420 8.800,271.600 8.530,271.600 8.200 C 271.600 7.870,271.420 7.600,271.200 7.600 C 270.980 7.600,270.800 7.870,270.800 8.200 M279.073 12.255 C 279.453 12.835,279.831 13.106,279.914 12.858 C 279.997 12.610,279.793 12.136,279.461 11.804 C 278.516 10.859,278.313 11.095,279.073 12.255 M271.606 13.300 C 271.603 13.905,271.780 14.400,272.000 14.400 C 272.506 14.400,272.506 13.583,272.000 12.800 C 271.698 12.332,271.611 12.443,271.606 13.300 M280.000 13.797 C 280.000 13.905,280.346 14.400,280.770 14.897 C 281.193 15.394,281.907 16.250,282.356 16.800 C 282.806 17.350,283.179 17.575,283.187 17.300 C 283.194 17.025,283.020 16.800,282.800 16.800 C 282.580 16.800,282.400 16.530,282.400 16.200 C 282.400 15.870,282.220 15.600,282.000 15.600 C 281.780 15.600,281.600 15.407,281.600 15.171 C 281.600 14.936,281.343 14.486,281.029 14.171 C 280.454 13.597,280.000 13.431,280.000 13.797 M283.213 18.225 C 283.233 18.830,284.369 20.164,284.636 19.897 C 284.770 19.763,284.502 19.247,284.040 18.751 C 283.578 18.255,283.206 18.018,283.213 18.225 M285.473 21.855 C 285.853 22.435,286.231 22.706,286.314 22.458 C 286.397 22.210,286.193 21.736,285.861 21.404 C 284.916 20.459,284.713 20.695,285.473 21.855 M286.400 23.600 C 286.400 23.820,286.559 24.000,286.754 24.000 C 286.949 24.000,287.399 24.585,287.754 25.300 C 288.465 26.731,290.395 29.193,290.398 28.672 C 290.399 28.492,289.860 27.559,289.200 26.600 C 288.540 25.641,288.000 24.740,288.000 24.599 C 288.000 24.281,286.940 23.200,286.629 23.200 C 286.503 23.200,286.400 23.380,286.400 23.600 M96.600 31.200 C 96.308 31.673,96.699 31.673,97.800 31.200 C 98.571 30.869,98.569 30.855,97.724 30.828 C 97.242 30.813,96.736 30.980,96.600 31.200 M292.550 33.250 C 292.687 33.553,292.911 34.115,293.046 34.500 C 293.182 34.885,293.452 35.200,293.647 35.200 C 294.262 35.200,294.030 34.430,293.150 33.550 C 292.683 33.083,292.412 32.948,292.550 33.250 M86.397 35.203 C 85.888 35.644,85.553 36.087,85.653 36.186 C 85.753 36.286,86.350 35.925,86.979 35.384 C 87.609 34.843,87.944 34.400,87.723 34.400 C 87.503 34.400,86.906 34.761,86.397 35.203 M270.800 36.600 C 270.800 37.150,270.980 37.600,271.200 37.600 C 271.420 37.600,271.600 37.150,271.600 36.600 C 271.600 36.050,271.420 35.600,271.200 35.600 C 270.980 35.600,270.800 36.050,270.800 36.600 M294.000 36.000 C 294.000 36.220,294.180 36.400,294.400 36.400 C 294.620 36.400,294.800 36.760,294.800 37.200 C 294.800 37.640,294.980 38.000,295.200 38.000 C 295.420 38.000,295.604 38.225,295.609 38.500 C 295.624 39.363,297.181 41.133,297.191 40.300 C 297.196 39.915,297.020 39.600,296.800 39.600 C 296.580 39.600,296.400 39.240,296.400 38.800 C 296.400 38.360,296.264 38.000,296.098 38.000 C 295.931 38.000,295.556 37.460,295.264 36.800 C 294.753 35.646,294.000 35.169,294.000 36.000 M114.093 38.000 C 114.562 38.751,115.200 39.080,115.200 38.571 C 115.200 38.273,114.125 37.200,113.825 37.200 C 113.698 37.200,113.818 37.560,114.093 38.000 M297.467 41.467 C 297.341 41.592,297.508 41.965,297.838 42.295 C 298.168 42.625,298.541 42.792,298.667 42.667 C 298.792 42.541,298.625 42.168,298.295 41.838 C 297.965 41.508,297.592 41.341,297.467 41.467 M219.568 43.761 C 219.859 44.113,220.284 44.400,220.511 44.400 C 220.739 44.400,221.571 44.876,222.362 45.459 C 223.292 46.144,223.517 46.226,223.000 45.693 C 221.965 44.626,218.814 42.853,219.568 43.761 M200.040 45.700 L 199.487 46.600 200.443 45.804 C 200.970 45.367,201.475 44.962,201.567 44.904 C 201.658 44.847,201.477 44.800,201.163 44.800 C 200.849 44.800,200.344 45.205,200.040 45.700 M268.508 46.372 C 268.540 46.797,268.709 47.056,268.883 46.949 C 269.327 46.675,269.280 45.600,268.825 45.600 C 268.619 45.600,268.476 45.948,268.508 46.372 M301.200 47.679 C 301.200 48.365,302.352 50.001,302.578 49.635 C 302.723 49.401,302.472 48.814,302.020 48.330 C 301.569 47.845,301.200 47.553,301.200 47.679 M267.778 48.435 C 267.631 48.674,267.710 49.070,267.955 49.315 C 268.282 49.642,268.400 49.526,268.400 48.880 C 268.400 47.914,268.192 47.765,267.778 48.435 M302.800 51.224 C 302.800 51.677,302.980 51.936,303.200 51.800 C 303.420 51.664,303.600 51.293,303.600 50.976 C 303.600 50.659,303.420 50.400,303.200 50.400 C 302.980 50.400,302.800 50.771,302.800 51.224 M304.309 53.824 C 303.994 54.139,305.174 56.400,305.653 56.400 C 305.870 56.400,305.944 56.568,305.817 56.772 C 305.691 56.977,305.770 57.258,305.993 57.396 C 306.217 57.534,306.400 57.957,306.400 58.335 C 306.400 58.714,306.760 59.283,307.200 59.600 C 307.640 59.917,308.000 60.497,308.000 60.888 C 308.000 61.280,308.180 61.600,308.400 61.600 C 308.986 61.600,308.968 61.548,306.910 57.405 C 305.088 53.737,304.797 53.337,304.309 53.824 M192.709 59.906 C 192.607 60.295,192.654 60.970,192.813 61.406 C 193.022 61.982,193.104 61.788,193.111 60.700 C 193.121 59.062,192.995 58.813,192.709 59.906 M261.846 62.586 C 261.126 63.685,261.052 64.000,261.512 64.000 C 261.684 64.000,262.028 63.460,262.278 62.800 C 262.828 61.342,262.702 61.280,261.846 62.586 M259.969 66.457 C 259.697 66.967,259.232 67.625,258.937 67.920 C 258.304 68.553,258.235 69.200,258.800 69.200 C 259.020 69.200,259.200 69.003,259.200 68.762 C 259.200 68.521,259.580 67.790,260.044 67.139 C 260.508 66.487,260.792 65.859,260.676 65.743 C 260.560 65.627,260.242 65.948,259.969 66.457 M312.000 69.200 C 312.000 69.640,312.180 70.000,312.400 70.000 C 312.620 70.000,312.800 70.360,312.800 70.800 C 312.800 71.240,312.980 71.600,313.200 71.600 C 313.420 71.600,313.600 71.960,313.600 72.400 C 313.600 72.840,313.780 73.200,314.000 73.200 C 314.220 73.200,314.400 73.560,314.400 74.000 C 314.400 74.440,314.580 74.800,314.800 74.800 C 315.020 74.800,315.200 75.160,315.200 75.600 C 315.200 76.040,315.380 76.400,315.600 76.400 C 315.820 76.400,316.000 76.141,316.000 75.824 C 316.000 75.507,315.820 75.136,315.600 75.000 C 315.380 74.864,315.200 74.403,315.200 73.976 C 315.200 73.549,315.020 73.200,314.800 73.200 C 314.580 73.200,314.400 72.840,314.400 72.400 C 314.400 71.960,314.220 71.600,314.000 71.600 C 313.780 71.600,313.600 71.240,313.600 70.800 C 313.600 70.360,313.420 70.000,313.200 70.000 C 312.980 70.000,312.800 69.640,312.800 69.200 C 312.800 68.760,312.620 68.400,312.400 68.400 C 312.180 68.400,312.000 68.760,312.000 69.200 M253.620 76.071 C 253.174 76.550,252.895 77.029,253.002 77.135 C 253.174 77.307,254.800 75.683,254.800 75.339 C 254.800 74.999,254.370 75.266,253.620 76.071 M251.700 78.198 C 251.425 78.511,251.200 78.954,251.200 79.183 C 251.200 79.412,251.020 79.600,250.800 79.600 C 250.580 79.600,250.400 79.791,250.400 80.024 C 250.400 80.639,251.041 80.147,252.009 78.788 C 252.861 77.590,252.628 77.144,251.700 78.198 M316.800 78.697 C 316.800 79.295,317.787 81.194,318.100 81.197 C 318.265 81.199,318.400 80.930,318.400 80.600 C 318.400 80.270,318.220 80.000,318.000 80.000 C 317.780 80.000,317.600 79.741,317.600 79.424 C 317.600 79.107,317.420 78.736,317.200 78.600 C 316.980 78.464,316.800 78.508,316.800 78.697 M247.700 82.998 C 246.870 83.941,247.116 84.600,248.000 83.800 C 248.807 83.070,249.054 82.387,248.500 82.415 C 248.335 82.424,247.975 82.686,247.700 82.998 M321.600 89.376 C 321.600 89.693,321.780 90.064,322.000 90.200 C 322.220 90.336,322.400 90.077,322.400 89.624 C 322.400 89.171,322.220 88.800,322.000 88.800 C 321.780 88.800,321.600 89.059,321.600 89.376 M240.860 91.042 C 240.131 91.866,240.600 92.257,241.381 91.476 C 241.721 91.136,242.000 90.754,242.000 90.629 C 242.000 90.209,241.406 90.424,240.860 91.042 M322.254 91.402 C 322.115 91.765,322.256 92.000,322.613 92.000 C 323.260 92.000,323.407 91.375,322.842 91.026 C 322.645 90.904,322.381 91.074,322.254 91.402 M238.400 93.200 C 237.653 93.898,237.353 94.400,237.682 94.400 C 238.337 94.400,240.000 92.954,240.000 92.384 C 240.000 91.795,239.788 91.903,238.400 93.200 M322.800 92.951 C 322.800 93.254,323.064 93.721,323.387 93.989 C 323.710 94.257,323.942 94.594,323.903 94.738 C 323.864 94.882,324.147 95.540,324.531 96.200 C 325.280 97.487,325.204 96.474,324.411 94.600 C 324.225 94.160,323.972 93.485,323.849 93.100 C 323.584 92.271,322.800 92.160,322.800 92.951 M152.012 95.600 C 152.012 95.930,152.187 96.470,152.400 96.800 C 152.745 97.333,152.788 97.333,152.788 96.800 C 152.788 96.470,152.613 95.930,152.400 95.600 C 152.055 95.067,152.012 95.067,152.012 95.600 M231.907 98.941 C 231.306 99.458,230.931 99.998,231.074 100.140 C 231.217 100.283,231.110 100.400,230.838 100.400 C 230.228 100.400,229.023 101.556,229.322 101.855 C 229.441 101.974,230.450 101.156,231.564 100.036 C 233.643 97.946,233.857 97.264,231.907 98.941 M226.800 103.313 C 225.252 104.570,225.054 105.260,226.508 104.331 C 227.310 103.819,227.974 103.265,227.983 103.100 C 228.008 102.661,227.486 102.755,226.800 103.313 M223.700 105.798 C 223.131 106.445,223.061 106.800,223.504 106.800 C 223.671 106.800,224.032 106.440,224.307 106.000 C 224.878 105.087,224.451 104.945,223.700 105.798 M328.887 110.900 C 328.639 112.275,328.331 114.390,328.202 115.600 C 327.691 120.407,326.307 130.454,325.585 134.600 C 325.355 135.920,324.988 138.080,324.769 139.400 C 323.574 146.629,319.509 164.071,317.172 172.000 C 316.491 174.310,315.791 176.740,315.617 177.400 C 314.013 183.466,305.989 205.518,302.809 212.600 C 302.414 213.480,301.692 215.100,301.204 216.200 C 296.138 227.621,288.190 243.069,283.179 251.234 C 282.091 253.008,281.200 254.518,281.200 254.590 C 281.200 255.154,269.976 272.142,266.261 277.200 C 265.373 278.410,263.920 280.390,263.033 281.600 C 246.935 303.568,223.888 327.518,202.400 344.612 C 200.750 345.924,199.310 347.096,199.200 347.217 C 198.261 348.242,184.697 357.945,177.528 362.720 C 167.631 369.312,160.448 373.655,150.000 379.366 C 143.439 382.952,130.038 389.401,123.600 392.071 C 121.510 392.937,119.037 393.996,118.104 394.423 C 117.172 394.850,115.957 395.200,115.404 395.200 C 114.600 395.200,114.400 395.399,114.400 396.200 C 114.400 397.098,114.562 397.200,115.976 397.200 C 116.843 397.200,117.664 397.380,117.800 397.600 C 117.936 397.820,119.387 398.000,121.024 398.000 C 122.741 398.000,124.000 398.169,124.000 398.400 C 124.000 398.639,125.573 398.800,127.920 398.800 C 130.400 398.800,132.014 398.974,132.312 399.272 C 132.980 399.940,180.229 400.220,189.000 399.607 C 192.520 399.362,196.930 399.067,198.800 398.952 C 200.670 398.838,202.371 398.576,202.580 398.372 C 202.789 398.167,203.903 398.000,205.056 398.000 C 206.209 398.000,207.264 397.820,207.400 397.600 C 207.536 397.380,208.807 397.200,210.224 397.200 C 211.675 397.200,212.800 397.025,212.800 396.800 C 212.800 396.578,213.867 396.400,215.200 396.400 C 216.533 396.400,217.600 396.222,217.600 396.000 C 217.600 395.780,218.309 395.600,219.176 395.600 C 220.043 395.600,220.864 395.420,221.000 395.200 C 221.136 394.980,221.957 394.800,222.824 394.800 C 223.691 394.800,224.400 394.620,224.400 394.400 C 224.400 394.180,225.120 394.000,226.000 394.000 C 226.880 394.000,227.600 393.820,227.600 393.600 C 227.600 393.380,228.500 393.200,229.600 393.200 C 230.700 393.200,231.600 393.020,231.600 392.800 C 231.600 392.580,232.320 392.400,233.200 392.400 C 234.080 392.400,234.800 392.259,234.800 392.086 C 234.800 391.913,235.835 391.549,237.100 391.276 C 238.365 391.003,239.895 390.674,240.500 390.545 C 241.105 390.415,241.600 390.150,241.600 389.955 C 241.600 389.760,242.140 389.600,242.800 389.600 C 243.460 389.600,244.000 389.420,244.000 389.200 C 244.000 388.980,244.392 388.800,244.872 388.800 C 245.792 388.800,248.128 388.140,249.295 387.551 C 249.677 387.358,250.262 387.200,250.595 387.200 C 250.928 387.200,251.200 387.020,251.200 386.800 C 251.200 386.580,251.562 386.400,252.005 386.400 C 252.448 386.400,253.123 386.241,253.505 386.047 C 254.178 385.704,254.750 385.459,257.500 384.336 C 258.215 384.044,258.800 383.669,258.800 383.502 C 258.800 383.336,259.239 383.200,259.776 383.200 C 260.313 383.200,260.864 383.020,261.000 382.800 C 261.136 382.580,261.597 382.400,262.024 382.400 C 262.451 382.400,262.800 382.220,262.800 382.000 C 262.800 381.780,263.160 381.600,263.600 381.600 C 264.040 381.600,264.400 381.420,264.400 381.200 C 264.400 380.980,264.760 380.800,265.200 380.800 C 265.640 380.800,266.000 380.620,266.000 380.400 C 266.000 380.180,266.360 380.000,266.800 380.000 C 267.240 380.000,267.600 379.820,267.600 379.600 C 267.600 379.380,267.960 379.200,268.400 379.200 C 268.840 379.200,269.200 379.020,269.200 378.800 C 269.200 378.580,269.560 378.400,270.000 378.400 C 270.440 378.400,270.800 378.220,270.800 378.000 C 270.800 377.780,271.160 377.600,271.600 377.600 C 272.040 377.600,272.400 377.420,272.400 377.200 C 272.400 376.980,272.670 376.800,273.000 376.800 C 273.330 376.800,273.600 376.620,273.600 376.400 C 273.600 376.180,273.870 376.000,274.200 376.000 C 274.530 376.000,274.801 375.865,274.801 375.700 C 274.802 375.535,275.612 375.067,276.601 374.660 C 277.591 374.254,278.400 373.759,278.400 373.560 C 278.400 373.362,278.760 373.200,279.200 373.200 C 279.640 373.200,280.000 373.020,280.000 372.800 C 280.000 372.580,280.236 372.400,280.525 372.400 C 280.813 372.400,281.398 372.085,281.825 371.700 C 282.251 371.315,283.095 370.745,283.700 370.432 C 284.305 370.120,284.800 369.715,284.800 369.532 C 284.800 369.350,285.036 369.200,285.325 369.200 C 285.613 369.200,286.236 368.840,286.708 368.400 C 287.180 367.960,287.754 367.600,287.983 367.600 C 288.212 367.600,288.400 367.420,288.400 367.200 C 288.400 366.980,288.598 366.800,288.840 366.800 C 289.081 366.800,289.783 366.260,290.400 365.600 C 291.017 364.940,291.647 364.400,291.800 364.400 C 291.953 364.400,292.583 363.860,293.200 363.200 C 293.817 362.540,294.523 362.000,294.770 362.000 C 295.825 362.000,313.600 344.170,313.600 343.111 C 313.600 342.897,314.140 342.217,314.800 341.600 C 315.460 340.983,316.000 340.370,316.000 340.236 C 316.000 340.102,316.540 339.428,317.200 338.737 C 317.860 338.046,318.400 337.326,318.400 337.137 C 318.400 336.948,318.940 336.228,319.600 335.537 C 320.260 334.846,320.800 334.038,320.800 333.741 C 320.800 333.443,320.980 333.200,321.200 333.200 C 321.420 333.200,321.600 332.964,321.600 332.675 C 321.600 332.387,321.960 331.764,322.400 331.292 C 322.840 330.820,323.200 330.156,323.200 329.817 C 323.200 329.478,323.367 329.200,323.571 329.200 C 323.775 329.200,324.260 328.480,324.648 327.600 C 325.036 326.720,325.466 326.000,325.602 326.000 C 325.739 326.000,326.098 325.370,326.400 324.600 C 326.702 323.830,327.096 323.200,327.275 323.200 C 327.454 323.200,327.600 322.840,327.600 322.400 C 327.600 321.960,327.780 321.600,328.000 321.600 C 328.220 321.600,328.400 321.240,328.400 320.800 C 328.400 320.360,328.580 320.000,328.800 320.000 C 329.020 320.000,329.204 319.775,329.209 319.500 C 329.214 319.225,329.570 318.550,330.000 318.000 C 330.430 317.450,330.786 316.595,330.791 316.100 C 330.796 315.605,330.980 315.200,331.200 315.200 C 331.420 315.200,331.600 314.840,331.600 314.400 C 331.600 313.960,331.780 313.600,332.000 313.600 C 332.220 313.600,332.400 313.240,332.400 312.800 C 332.400 312.360,332.580 312.000,332.800 312.000 C 333.020 312.000,333.200 311.640,333.200 311.200 C 333.200 310.760,333.380 310.400,333.600 310.400 C 333.820 310.400,334.000 310.128,334.000 309.795 C 334.000 309.462,334.180 308.832,334.400 308.395 C 334.620 307.958,334.980 307.242,335.200 306.805 C 335.420 306.368,335.600 305.648,335.600 305.205 C 335.600 304.762,335.780 304.400,336.000 304.400 C 336.220 304.400,336.400 304.051,336.400 303.624 C 336.400 303.197,336.580 302.736,336.800 302.600 C 337.020 302.464,337.200 301.913,337.200 301.376 C 337.200 300.839,337.380 300.400,337.600 300.400 C 337.820 300.400,338.000 299.961,338.000 299.424 C 338.000 298.887,338.180 298.336,338.400 298.200 C 338.620 298.064,338.800 297.423,338.800 296.776 C 338.800 296.129,338.980 295.600,339.200 295.600 C 339.420 295.600,339.600 295.060,339.600 294.400 C 339.600 293.740,339.780 293.200,340.000 293.200 C 340.220 293.200,340.400 292.671,340.400 292.024 C 340.400 291.377,340.567 290.744,340.772 290.617 C 340.977 290.491,341.268 289.398,341.419 288.188 C 341.570 286.979,341.852 285.891,342.047 285.771 C 342.241 285.651,342.400 285.023,342.400 284.376 C 342.400 283.729,342.580 283.200,342.800 283.200 C 343.020 283.200,343.200 282.480,343.200 281.600 C 343.200 280.720,343.380 280.000,343.600 280.000 C 343.820 280.000,344.000 279.280,344.000 278.400 C 344.000 277.520,344.180 276.800,344.400 276.800 C 344.620 276.800,344.800 275.990,344.800 275.000 C 344.800 274.010,344.980 273.200,345.200 273.200 C 345.420 273.200,345.600 272.480,345.600 271.600 C 345.600 270.720,345.780 270.000,346.000 270.000 C 346.220 270.000,346.400 269.111,346.400 268.024 C 346.400 266.937,346.580 265.936,346.800 265.800 C 347.020 265.664,347.200 264.573,347.200 263.376 C 347.200 262.179,347.380 261.200,347.600 261.200 C 347.820 261.200,348.000 260.221,348.000 259.024 C 348.000 257.827,348.180 256.736,348.400 256.600 C 348.620 256.464,348.800 255.013,348.800 253.376 C 348.800 251.659,348.969 250.400,349.200 250.400 C 349.437 250.400,349.600 248.933,349.600 246.800 C 349.600 244.667,349.763 243.200,350.000 243.200 C 350.248 243.200,350.400 241.000,350.400 237.400 C 350.400 233.800,350.552 231.600,350.800 231.600 C 351.057 231.600,351.200 227.541,351.200 220.224 C 351.200 213.071,351.051 208.755,350.800 208.600 C 350.561 208.453,350.400 205.870,350.400 202.200 C 350.400 198.530,350.239 195.947,350.000 195.800 C 349.777 195.662,349.600 193.804,349.600 191.600 C 349.600 189.396,349.423 187.538,349.200 187.400 C 348.980 187.264,348.800 186.004,348.800 184.600 C 348.800 183.196,348.620 181.936,348.400 181.800 C 348.180 181.664,348.000 180.393,348.000 178.976 C 348.000 177.525,347.825 176.400,347.600 176.400 C 347.378 176.400,347.200 175.333,347.200 174.000 C 347.200 172.667,347.022 171.600,346.800 171.600 C 346.580 171.600,346.400 170.610,346.400 169.400 C 346.400 168.190,346.220 167.200,346.000 167.200 C 345.780 167.200,345.600 166.210,345.600 165.000 C 345.600 163.790,345.420 162.800,345.200 162.800 C 344.980 162.800,344.800 161.990,344.800 161.000 C 344.800 160.010,344.620 159.200,344.400 159.200 C 344.180 159.200,344.000 158.480,344.000 157.600 C 344.000 156.720,343.820 156.000,343.600 156.000 C 343.380 156.000,343.200 155.100,343.200 154.000 C 343.200 152.900,343.020 152.000,342.800 152.000 C 342.580 152.000,342.400 151.280,342.400 150.400 C 342.400 149.520,342.246 148.800,342.057 148.800 C 341.868 148.800,341.600 147.712,341.461 146.382 C 341.322 145.051,341.027 143.623,340.804 143.208 C 340.582 142.792,340.400 142.001,340.400 141.450 C 340.400 140.898,340.220 140.336,340.000 140.200 C 339.780 140.064,339.600 139.333,339.600 138.576 C 339.600 137.819,339.420 137.200,339.200 137.200 C 338.980 137.200,338.800 136.808,338.800 136.328 C 338.800 135.408,338.140 133.072,337.551 131.905 C 337.358 131.523,337.200 130.758,337.200 130.205 C 337.200 129.652,337.040 129.200,336.845 129.200 C 336.510 129.200,336.258 128.312,335.737 125.300 C 335.614 124.585,335.352 124.000,335.156 124.000 C 334.960 124.000,334.800 123.460,334.800 122.800 C 334.800 122.140,334.620 121.600,334.400 121.600 C 334.180 121.600,334.000 121.060,334.000 120.400 C 334.000 119.740,333.820 119.200,333.600 119.200 C 333.380 119.200,333.200 118.761,333.200 118.224 C 333.200 117.687,333.020 117.136,332.800 117.000 C 332.580 116.864,332.400 116.324,332.400 115.800 C 332.400 115.276,332.220 114.736,332.000 114.600 C 331.780 114.464,331.600 114.003,331.600 113.576 C 331.600 113.149,331.420 112.800,331.200 112.800 C 330.980 112.800,330.800 112.361,330.800 111.824 C 330.800 111.287,330.620 110.736,330.400 110.600 C 330.180 110.464,330.000 109.913,330.000 109.376 C 330.000 107.507,329.335 108.417,328.887 110.900 M216.800 110.800 C 216.030 111.459,215.267 111.999,215.105 111.999 C 214.799 112.000,213.859 112.718,212.046 114.332 C 210.929 115.328,211.721 115.090,212.903 114.075 C 213.289 113.743,213.939 113.275,214.346 113.036 C 216.505 111.765,218.400 110.344,218.400 109.995 C 218.400 109.443,218.366 109.460,216.800 110.800 M209.300 115.744 C 208.805 115.989,208.400 116.327,208.400 116.495 C 208.400 116.996,208.940 116.829,210.000 116.000 C 211.082 115.154,210.743 115.029,209.300 115.744 M69.150 124.983 C 69.017 125.116,68.492 125.305,67.984 125.403 C 67.475 125.501,66.935 125.781,66.785 126.025 C 66.634 126.269,66.396 126.453,66.255 126.434 C 65.495 126.332,65.149 126.544,63.508 128.117 C 60.558 130.944,59.466 134.405,60.203 138.600 C 60.540 140.519,61.280 142.400,61.698 142.400 C 61.864 142.400,62.000 142.676,62.000 143.013 C 62.000 143.809,64.591 146.400,65.387 146.400 C 65.724 146.400,66.000 146.580,66.000 146.800 C 66.000 147.020,66.540 147.200,67.200 147.200 C 67.860 147.200,68.400 147.380,68.400 147.600 C 68.400 147.835,69.800 148.000,71.800 148.000 C 73.800 148.000,75.200 147.835,75.200 147.600 C 75.200 147.380,75.700 147.200,76.312 147.200 C 76.965 147.200,77.661 146.870,78.000 146.400 C 78.317 145.960,78.820 145.600,79.117 145.600 C 79.813 145.600,80.800 144.613,80.800 143.917 C 80.800 143.620,81.160 143.117,81.600 142.800 C 82.040 142.483,82.400 141.903,82.400 141.512 C 82.400 141.120,82.580 140.800,82.800 140.800 C 83.041 140.800,83.200 139.133,83.200 136.600 C 83.200 134.067,83.041 132.400,82.800 132.400 C 82.580 132.400,82.400 132.128,82.400 131.795 C 82.400 128.548,77.425 125.255,71.996 124.908 C 70.563 124.817,69.283 124.851,69.150 124.983 M189.800 127.200 C 189.664 127.420,189.203 127.600,188.776 127.600 C 188.349 127.600,188.000 127.780,188.000 128.000 C 188.000 128.220,187.640 128.400,187.200 128.400 C 186.760 128.400,186.400 128.580,186.400 128.800 C 186.400 129.020,186.485 129.200,186.589 129.200 C 187.100 129.200,190.400 127.399,190.400 127.120 C 190.400 126.679,190.097 126.719,189.800 127.200 M174.100 134.682 C 173.605 134.778,173.200 135.023,173.200 135.228 C 173.200 135.735,173.618 135.676,174.800 135.000 C 175.815 134.420,175.710 134.372,174.100 134.682 M162.200 140.000 C 162.064 140.220,162.323 140.400,162.776 140.400 C 163.229 140.400,163.600 140.220,163.600 140.000 C 163.600 139.780,163.341 139.600,163.024 139.600 C 162.707 139.600,162.336 139.780,162.200 140.000 M147.200 146.000 C 147.200 146.220,147.470 146.400,147.800 146.400 C 148.130 146.400,148.400 146.220,148.400 146.000 C 148.400 145.780,148.130 145.600,147.800 145.600 C 147.470 145.600,147.200 145.780,147.200 146.000 M136.400 150.753 C 136.400 150.948,136.003 151.211,135.517 151.337 C 135.032 151.464,134.739 151.672,134.866 151.799 C 135.166 152.100,137.200 151.173,137.200 150.736 C 137.200 150.551,137.020 150.400,136.800 150.400 C 136.580 150.400,136.400 150.559,136.400 150.753 M121.067 159.067 C 120.684 159.449,120.738 160.000,121.157 160.000 C 121.354 160.000,121.618 159.730,121.745 159.400 C 121.979 158.790,121.553 158.581,121.067 159.067 M118.629 160.629 C 117.442 161.815,118.089 161.716,120.000 160.420 C 120.520 160.066,120.511 160.011,119.929 160.006 C 119.559 160.003,118.974 160.283,118.629 160.629 M116.412 161.984 C 116.088 162.189,115.957 162.491,116.121 162.654 C 116.285 162.818,116.723 162.648,117.095 162.276 C 117.818 161.553,117.385 161.369,116.412 161.984 M114.060 163.442 C 113.245 164.363,113.682 164.445,114.806 163.582 C 115.456 163.082,115.592 162.820,115.200 162.824 C 114.870 162.828,114.357 163.105,114.060 163.442 M109.147 166.733 C 108.789 167.100,108.081 167.712,107.574 168.093 C 107.068 168.475,106.762 168.895,106.894 169.028 C 107.027 169.160,107.717 168.713,108.427 168.034 C 109.137 167.355,109.872 166.800,110.059 166.800 C 110.247 166.800,110.400 166.620,110.400 166.400 C 110.400 165.829,109.904 165.961,109.147 166.733 M103.660 171.051 C 103.143 171.602,102.790 172.124,102.877 172.210 C 103.069 172.403,105.200 170.608,105.200 170.253 C 105.200 169.749,104.581 170.069,103.660 171.051 M96.800 176.341 C 95.705 177.056,95.280 177.447,94.451 178.502 C 93.707 179.448,94.070 179.382,95.239 178.358 C 95.767 177.895,96.632 177.172,97.161 176.752 C 98.385 175.780,98.120 175.478,96.800 176.341 M222.179 177.966 C 222.303 178.167,222.179 178.412,221.902 178.511 C 221.626 178.610,221.490 178.781,221.600 178.891 C 221.710 179.001,222.340 178.756,223.000 178.347 L 224.200 177.604 223.076 177.602 C 222.458 177.601,222.055 177.765,222.179 177.966 M219.757 179.033 C 219.891 179.381,220.000 179.751,220.000 179.856 C 220.000 179.961,220.180 179.936,220.400 179.800 C 221.037 179.406,220.863 178.400,220.157 178.400 C 219.735 178.400,219.598 178.618,219.757 179.033 M92.001 180.704 C 89.946 182.314,83.095 189.229,83.327 189.460 C 83.436 189.569,85.806 187.395,88.594 184.629 C 91.382 181.863,93.604 179.602,93.532 179.604 C 93.459 179.607,92.770 180.102,92.001 180.704 M214.651 180.317 C 214.544 180.491,214.803 180.660,215.228 180.692 C 215.652 180.724,216.000 180.581,216.000 180.375 C 216.000 179.920,214.925 179.873,214.651 180.317 M204.800 184.400 C 204.315 184.714,204.372 184.789,205.100 184.794 C 205.595 184.797,206.000 184.620,206.000 184.400 C 206.000 183.899,205.576 183.899,204.800 184.400 M211.829 184.609 C 211.405 184.929,211.168 185.302,211.303 185.436 C 211.437 185.570,211.953 185.302,212.449 184.840 C 213.469 183.890,213.007 183.718,211.829 184.609 M209.724 186.173 C 209.079 186.908,209.553 187.304,210.248 186.610 C 210.551 186.306,210.800 185.954,210.800 185.829 C 210.800 185.426,210.215 185.613,209.724 186.173 M203.900 190.487 C 202.851 191.800,203.057 192.179,204.200 191.036 C 204.750 190.486,205.200 189.938,205.200 189.818 C 205.200 189.332,204.559 189.662,203.900 190.487 M191.300 190.665 C 190.481 190.995,190.733 191.543,191.600 191.316 C 192.040 191.201,192.400 190.948,192.400 190.753 C 192.400 190.372,192.088 190.347,191.300 190.665 M81.342 191.740 C 81.090 191.993,80.370 192.673,79.742 193.252 C 78.380 194.506,76.981 196.800,77.577 196.800 C 77.810 196.800,78.000 196.621,78.000 196.403 C 78.000 195.941,79.305 194.306,80.955 192.700 C 81.590 192.082,82.040 191.510,81.955 191.429 C 81.870 191.347,81.594 191.488,81.342 191.740 M188.394 192.418 C 187.847 192.839,187.580 193.180,187.800 193.178 C 188.329 193.173,189.791 192.058,189.565 191.831 C 189.468 191.734,188.941 191.998,188.394 192.418 M200.025 193.500 C 197.784 195.354,196.568 196.503,197.228 196.143 C 198.600 195.394,201.186 193.371,201.375 192.900 C 201.655 192.199,201.529 192.256,200.025 193.500 M180.629 197.029 C 180.205 197.338,179.972 197.705,180.110 197.843 C 180.249 197.982,180.662 197.795,181.029 197.429 C 181.891 196.566,181.625 196.300,180.629 197.029 M195.600 197.104 C 195.270 197.399,194.410 198.158,193.690 198.791 C 192.969 199.423,192.522 200.028,192.696 200.136 C 193.070 200.367,196.499 197.259,196.322 196.849 C 196.255 196.694,195.930 196.808,195.600 197.104 M75.519 198.403 C 74.691 199.857,74.912 199.925,76.218 198.618 C 77.321 197.516,77.429 197.199,76.700 197.203 C 76.425 197.204,75.893 197.744,75.519 198.403 M175.430 200.451 C 174.964 200.904,174.857 201.200,175.159 201.200 C 175.795 201.200,176.905 200.108,176.503 199.877 C 176.336 199.781,175.854 200.039,175.430 200.451 M73.660 201.042 C 72.931 201.866,73.400 202.257,74.181 201.476 C 74.521 201.136,74.800 200.754,74.800 200.629 C 74.800 200.209,74.206 200.424,73.660 201.042 M71.260 204.268 C 70.519 205.069,71.009 205.448,71.784 204.673 C 72.126 204.331,72.270 203.968,72.103 203.867 C 71.936 203.767,71.557 203.947,71.260 204.268 M169.573 204.866 C 167.324 206.495,166.207 207.541,166.454 207.788 C 166.562 207.896,167.273 207.402,168.034 206.692 C 168.796 205.981,169.909 205.145,170.509 204.832 C 171.109 204.520,171.600 204.115,171.600 203.932 C 171.600 203.433,171.465 203.495,169.573 204.866 M69.700 206.623 C 69.111 207.263,69.062 207.600,69.557 207.600 C 69.898 207.600,70.537 206.396,70.309 206.183 C 70.249 206.127,69.975 206.325,69.700 206.623 M67.257 210.457 C 66.975 210.909,66.832 211.366,66.940 211.473 C 67.047 211.581,67.344 211.278,67.600 210.800 C 68.205 209.670,67.924 209.390,67.257 210.457 M162.060 210.651 C 161.543 211.202,161.217 211.750,161.336 211.869 C 161.552 212.085,163.600 210.230,163.600 209.818 C 163.600 209.347,162.956 209.695,162.060 210.651 M180.128 212.381 C 178.768 213.822,177.270 215.495,176.798 216.100 C 175.296 218.030,176.416 217.281,178.545 214.933 C 179.675 213.686,181.105 212.140,181.721 211.497 C 182.338 210.855,182.788 210.201,182.721 210.046 C 182.655 209.890,181.487 210.941,180.128 212.381 M65.696 212.795 C 65.095 213.757,65.076 214.000,65.600 214.000 C 65.820 214.000,66.000 213.730,66.000 213.400 C 66.000 213.070,66.180 212.800,66.400 212.800 C 66.620 212.800,66.800 212.620,66.800 212.400 C 66.800 211.741,66.226 211.946,65.696 212.795 M158.038 214.155 C 157.754 214.497,157.714 214.823,157.939 214.962 C 158.146 215.090,158.429 214.901,158.568 214.540 C 158.907 213.656,158.623 213.450,158.038 214.155 M64.400 215.120 C 64.400 215.516,64.175 216.096,63.900 216.409 C 63.625 216.723,63.805 216.641,64.300 216.227 C 65.224 215.456,65.513 214.400,64.800 214.400 C 64.580 214.400,64.400 214.724,64.400 215.120 M155.400 216.800 C 155.002 217.240,154.839 217.594,155.038 217.587 C 155.503 217.571,156.800 216.591,156.800 216.256 C 156.800 215.748,156.109 216.016,155.400 216.800 M150.735 221.600 C 148.728 223.580,147.286 225.200,147.530 225.200 C 147.938 225.200,149.690 223.574,151.242 221.753 C 151.595 221.339,152.659 220.325,153.606 219.500 C 154.553 218.675,155.116 218.000,154.856 218.000 C 154.596 218.000,152.741 219.620,150.735 221.600 M174.460 219.042 C 173.731 219.866,174.200 220.257,174.981 219.476 C 175.321 219.136,175.600 218.754,175.600 218.629 C 175.600 218.209,175.006 218.424,174.460 219.042 M171.686 222.624 C 171.183 223.161,170.913 223.597,171.086 223.594 C 171.515 223.586,172.094 223.135,172.749 222.300 C 173.573 221.249,172.735 221.505,171.686 222.624 M58.400 227.800 C 58.400 228.130,58.580 228.400,58.800 228.400 C 59.020 228.400,59.200 228.130,59.200 227.800 C 59.200 227.470,59.020 227.200,58.800 227.200 C 58.580 227.200,58.400 227.470,58.400 227.800 M143.067 229.867 C 142.248 230.662,141.661 231.395,141.763 231.496 C 141.864 231.597,142.607 231.020,143.413 230.213 C 144.220 229.407,144.807 228.673,144.717 228.584 C 144.628 228.495,143.885 229.072,143.067 229.867 M166.100 229.410 C 165.605 229.939,165.200 230.608,165.200 230.897 C 165.200 231.187,164.840 231.683,164.400 232.000 C 163.960 232.317,163.600 232.841,163.600 233.164 C 163.600 233.883,164.395 233.044,166.325 230.291 C 167.729 228.287,167.605 227.803,166.100 229.410 M139.074 234.809 C 138.455 235.684,138.063 236.400,138.203 236.400 C 138.565 236.400,139.338 235.576,140.173 234.300 C 141.296 232.582,140.335 233.027,139.074 234.809 M162.554 234.540 C 161.942 235.241,161.106 236.839,161.268 237.001 C 161.340 237.074,161.907 236.428,162.526 235.567 C 163.563 234.124,163.584 233.363,162.554 234.540 M55.200 236.200 C 55.200 236.530,55.380 236.800,55.600 236.800 C 55.820 236.800,56.000 236.530,56.000 236.200 C 56.000 235.870,55.820 235.600,55.600 235.600 C 55.380 235.600,55.200 235.870,55.200 236.200 M160.056 238.255 C 159.576 239.327,159.586 239.358,160.218 238.739 C 160.589 238.376,160.820 237.860,160.731 237.594 C 160.642 237.327,160.339 237.625,160.056 238.255 M54.510 238.800 C 54.543 239.240,54.712 239.600,54.885 239.600 C 55.058 239.600,55.200 239.240,55.200 238.800 C 55.200 238.360,55.031 238.000,54.825 238.000 C 54.619 238.000,54.477 238.360,54.510 238.800 M158.100 241.823 C 157.511 242.463,157.462 242.800,157.957 242.800 C 158.298 242.800,158.937 241.596,158.709 241.383 C 158.649 241.327,158.375 241.525,158.100 241.823 M132.124 243.773 C 131.479 244.508,131.953 244.904,132.648 244.210 C 132.951 243.906,133.200 243.554,133.200 243.429 C 133.200 243.026,132.615 243.213,132.124 243.773 M52.800 244.200 C 52.800 244.530,52.980 244.800,53.200 244.800 C 53.420 244.800,53.600 244.530,53.600 244.200 C 53.600 243.870,53.420 243.600,53.200 243.600 C 52.980 243.600,52.800 243.870,52.800 244.200 M155.200 246.200 C 155.200 246.530,155.380 246.800,155.600 246.800 C 155.820 246.800,156.000 246.530,156.000 246.200 C 156.000 245.870,155.820 245.600,155.600 245.600 C 155.380 245.600,155.200 245.870,155.200 246.200 M52.000 247.600 C 52.000 248.040,52.180 248.400,52.400 248.400 C 52.620 248.400,52.800 248.040,52.800 247.600 C 52.800 247.160,52.620 246.800,52.400 246.800 C 52.180 246.800,52.000 247.160,52.000 247.600 M154.258 247.787 C 153.850 248.096,153.588 248.565,153.676 248.829 C 153.768 249.105,154.131 248.860,154.527 248.255 C 155.314 247.053,155.288 247.007,154.258 247.787 M150.860 253.442 C 150.131 254.266,150.600 254.657,151.381 253.876 C 151.721 253.536,152.000 253.154,152.000 253.029 C 152.000 252.609,151.406 252.824,150.860 253.442 M50.700 254.631 C 50.535 254.797,50.405 255.398,50.412 255.967 C 50.423 256.873,50.475 256.913,50.839 256.287 C 51.295 255.505,51.181 254.146,50.700 254.631 M124.432 255.696 C 124.120 256.193,123.330 257.590,122.675 258.800 C 122.020 260.010,121.309 261.225,121.093 261.500 C 120.851 261.810,120.847 262.000,121.083 262.000 C 121.293 262.000,121.720 261.505,122.032 260.900 C 122.344 260.295,122.698 259.710,122.820 259.600 C 122.942 259.490,123.374 258.680,123.780 257.800 C 124.186 256.920,124.694 256.086,124.908 255.946 C 125.122 255.807,125.230 255.490,125.147 255.242 C 125.065 254.995,124.743 255.199,124.432 255.696 M49.600 261.200 C 49.600 261.860,49.742 262.400,49.915 262.400 C 50.088 262.400,50.271 261.860,50.321 261.200 C 50.372 260.540,50.230 260.000,50.006 260.000 C 49.783 260.000,49.600 260.540,49.600 261.200 M146.400 262.024 C 146.400 262.477,146.580 262.736,146.800 262.600 C 147.020 262.464,147.200 262.093,147.200 261.776 C 147.200 261.459,147.020 261.200,146.800 261.200 C 146.580 261.200,146.400 261.571,146.400 262.024 M118.896 265.195 C 118.144 266.398,118.302 266.656,119.200 265.692 C 120.047 264.783,120.194 264.400,119.696 264.400 C 119.529 264.400,119.169 264.758,118.896 265.195 M144.000 266.720 C 144.000 267.116,143.840 267.611,143.645 267.820 C 143.094 268.410,142.703 270.000,143.110 270.000 C 143.310 270.000,143.694 269.325,143.963 268.500 C 144.232 267.675,144.545 266.775,144.659 266.500 C 144.773 266.225,144.672 266.000,144.433 266.000 C 144.195 266.000,144.000 266.324,144.000 266.720 M49.067 267.867 C 48.700 268.233,48.783 271.619,49.182 272.600 C 49.391 273.112,49.497 272.355,49.477 270.500 C 49.460 268.905,49.420 267.600,49.389 267.600 C 49.359 267.600,49.213 267.720,49.067 267.867 M48.806 283.876 C 48.803 285.238,48.974 286.461,49.188 286.592 C 49.422 286.737,49.552 285.962,49.517 284.626 C 49.435 281.505,48.814 280.850,48.806 283.876 M137.492 282.242 C 137.331 282.402,137.200 282.809,137.200 283.147 C 137.200 283.597,137.318 283.642,137.645 283.315 C 137.890 283.070,138.021 282.663,137.937 282.410 C 137.852 282.157,137.652 282.081,137.492 282.242 M109.600 283.400 C 109.600 283.730,109.780 284.000,110.000 284.000 C 110.220 284.000,110.400 283.730,110.400 283.400 C 110.400 283.070,110.220 282.800,110.000 282.800 C 109.780 282.800,109.600 283.070,109.600 283.400 M135.012 288.517 C 134.841 288.912,134.813 289.347,134.951 289.484 C 135.357 289.890,135.684 289.320,135.497 288.531 C 135.332 287.833,135.310 287.832,135.012 288.517 M107.335 289.700 C 106.900 290.395,106.804 291.245,107.187 291.008 C 107.508 290.810,108.041 289.200,107.786 289.200 C 107.710 289.200,107.507 289.425,107.335 289.700 M49.600 293.133 C 49.600 294.050,49.788 294.800,50.018 294.800 C 50.283 294.800,50.337 294.250,50.165 293.300 C 49.790 291.224,49.600 291.168,49.600 293.133 M106.432 291.651 C 106.414 291.789,106.128 292.554,105.795 293.351 C 105.441 294.198,105.358 294.800,105.595 294.800 C 105.818 294.800,106.000 294.476,106.000 294.080 C 106.000 293.684,106.200 293.160,106.445 292.915 C 106.690 292.670,106.794 292.229,106.677 291.935 C 106.559 291.641,106.449 291.513,106.432 291.651 M50.400 299.800 C 50.400 300.130,50.580 300.400,50.800 300.400 C 51.020 300.400,51.200 300.130,51.200 299.800 C 51.200 299.470,51.020 299.200,50.800 299.200 C 50.580 299.200,50.400 299.470,50.400 299.800 M102.288 302.133 C 101.842 303.266,101.915 303.845,102.438 303.322 C 102.678 303.082,102.808 302.551,102.726 302.142 C 102.582 301.426,102.566 301.426,102.288 302.133 M51.200 304.400 C 51.200 304.840,51.369 305.200,51.575 305.200 C 51.781 305.200,51.923 304.840,51.890 304.400 C 51.857 303.960,51.688 303.600,51.515 303.600 C 51.342 303.600,51.200 303.960,51.200 304.400 M129.206 305.300 C 129.211 306.028,129.286 306.085,129.600 305.600 C 130.101 304.824,130.101 304.400,129.600 304.400 C 129.380 304.400,129.203 304.805,129.206 305.300 M128.667 307.067 C 128.520 307.213,128.411 307.708,128.425 308.167 C 128.449 308.933,128.482 308.923,128.834 308.042 C 129.226 307.063,129.144 306.589,128.667 307.067 M127.848 310.100 C 127.778 310.375,127.537 311.166,127.311 311.858 C 127.086 312.550,127.033 313.330,127.194 313.591 C 127.363 313.864,127.620 313.330,127.800 312.332 C 127.972 311.380,128.161 310.375,128.221 310.100 C 128.280 309.825,128.249 309.600,128.152 309.600 C 128.055 309.600,127.918 309.825,127.848 310.100 M52.800 311.976 C 52.800 312.429,52.980 312.800,53.200 312.800 C 53.420 312.800,53.600 312.541,53.600 312.224 C 53.600 311.907,53.420 311.536,53.200 311.400 C 52.980 311.264,52.800 311.523,52.800 311.976 M126.190 316.030 C 126.046 316.487,126.033 316.967,126.163 317.097 C 126.294 317.227,126.400 317.033,126.400 316.667 C 126.400 316.300,126.580 316.000,126.800 316.000 C 127.020 316.000,127.200 315.820,127.200 315.600 C 127.200 314.870,126.458 315.186,126.190 316.030 M54.400 318.600 C 54.400 318.930,54.580 319.200,54.800 319.200 C 55.020 319.200,55.200 318.930,55.200 318.600 C 55.200 318.270,55.020 318.000,54.800 318.000 C 54.580 318.000,54.400 318.270,54.400 318.600 M124.910 321.600 C 124.943 322.040,125.112 322.400,125.285 322.400 C 125.458 322.400,125.600 322.040,125.600 321.600 C 125.600 321.160,125.431 320.800,125.225 320.800 C 125.019 320.800,124.877 321.160,124.910 321.600 M123.200 328.176 C 123.200 328.493,123.380 328.864,123.600 329.000 C 123.820 329.136,124.000 328.877,124.000 328.424 C 124.000 327.971,123.820 327.600,123.600 327.600 C 123.380 327.600,123.200 327.859,123.200 328.176 M93.200 330.200 C 93.200 330.530,93.380 330.800,93.600 330.800 C 93.820 330.800,94.000 330.530,94.000 330.200 C 94.000 329.870,93.820 329.600,93.600 329.600 C 93.380 329.600,93.200 329.870,93.200 330.200 M122.612 331.317 C 122.441 331.712,122.413 332.147,122.551 332.284 C 122.957 332.690,123.284 332.120,123.097 331.331 C 122.932 330.633,122.910 330.632,122.612 331.317 M92.400 333.400 C 92.400 333.730,92.580 334.000,92.800 334.000 C 93.020 334.000,93.200 333.730,93.200 333.400 C 93.200 333.070,93.020 332.800,92.800 332.800 C 92.580 332.800,92.400 333.070,92.400 333.400 M58.800 333.351 C 58.800 333.434,59.070 333.726,59.400 334.000 C 59.891 334.408,60.000 334.380,60.000 333.849 C 60.000 333.492,59.730 333.200,59.400 333.200 C 59.070 333.200,58.800 333.268,58.800 333.351 M121.606 335.900 C 121.611 336.757,121.698 336.868,122.000 336.400 C 122.506 335.617,122.506 334.800,122.000 334.800 C 121.780 334.800,121.603 335.295,121.606 335.900 M120.800 339.824 C 120.800 340.404,120.973 340.740,121.200 340.600 C 121.420 340.464,121.600 340.003,121.600 339.576 C 121.600 339.149,121.420 338.800,121.200 338.800 C 120.980 338.800,120.800 339.261,120.800 339.824 M90.742 342.200 C 90.616 342.860,90.386 343.760,90.231 344.200 C 90.076 344.640,90.242 344.495,90.599 343.877 C 90.957 343.259,91.187 342.359,91.110 341.877 C 90.993 341.147,90.932 341.201,90.742 342.200 M120.292 343.442 C 120.131 343.602,120.000 344.009,120.000 344.347 C 120.000 344.797,120.118 344.842,120.445 344.515 C 120.690 344.270,120.821 343.863,120.737 343.610 C 120.652 343.357,120.452 343.281,120.292 343.442 M89.849 345.930 C 89.672 346.442,89.633 346.967,89.763 347.097 C 90.178 347.511,90.470 346.900,90.318 345.934 L 90.171 345.000 89.849 345.930 M119.200 348.424 C 119.200 349.137,119.367 349.544,119.600 349.400 C 119.820 349.264,120.000 348.713,120.000 348.176 C 120.000 347.639,119.820 347.200,119.600 347.200 C 119.380 347.200,119.200 347.751,119.200 348.424 M89.096 349.733 C 88.633 350.879,88.716 351.844,89.234 351.326 C 89.472 351.088,89.606 350.467,89.530 349.946 C 89.409 349.113,89.357 349.088,89.096 349.733 M118.406 353.300 C 118.411 354.286,118.506 354.455,118.800 354.000 C 119.308 353.214,119.308 352.000,118.800 352.000 C 118.580 352.000,118.403 352.585,118.406 353.300 M66.800 352.696 C 66.800 352.947,66.980 353.264,67.200 353.400 C 67.420 353.536,67.600 353.977,67.600 354.381 C 67.600 354.784,67.867 355.217,68.193 355.342 C 68.531 355.472,68.685 355.835,68.550 356.185 C 68.421 356.523,68.514 356.800,68.757 356.800 C 69.405 356.800,69.304 356.212,68.362 354.512 C 67.362 352.707,66.800 352.053,66.800 352.696 M88.288 354.133 C 87.842 355.266,87.915 355.845,88.438 355.322 C 88.678 355.082,88.808 354.551,88.726 354.142 C 88.582 353.426,88.566 353.426,88.288 354.133 M69.200 357.800 C 69.200 358.130,69.380 358.400,69.600 358.400 C 69.820 358.400,70.000 358.130,70.000 357.800 C 70.000 357.470,69.820 357.200,69.600 357.200 C 69.380 357.200,69.200 357.470,69.200 357.800 M87.200 358.600 C 87.200 359.150,87.380 359.600,87.600 359.600 C 87.820 359.600,88.000 359.150,88.000 358.600 C 88.000 358.050,87.820 357.600,87.600 357.600 C 87.380 357.600,87.200 358.050,87.200 358.600 M117.628 358.100 C 117.707 359.494,118.344 360.180,118.372 358.900 C 118.387 358.185,118.220 357.600,118.000 357.600 C 117.780 357.600,117.613 357.825,117.628 358.100 M86.769 362.900 C 86.516 363.728,86.546 364.400,86.835 364.400 C 87.036 364.400,87.200 364.040,87.200 363.600 C 87.200 362.957,86.901 362.471,86.769 362.900 M116.828 364.500 C 116.850 365.817,116.934 366.020,117.200 365.400 C 117.679 364.284,117.679 362.800,117.200 362.800 C 116.980 362.800,116.813 363.565,116.828 364.500 M85.849 367.930 C 85.672 368.442,85.633 368.967,85.763 369.097 C 86.178 369.511,86.470 368.900,86.318 367.934 L 86.171 367.000 85.849 367.930 M75.612 370.024 C 75.595 370.892,76.666 372.267,77.056 371.878 C 77.232 371.701,77.187 371.431,76.954 371.278 C 76.722 371.125,76.327 370.640,76.078 370.200 C 75.739 369.602,75.621 369.557,75.612 370.024 M116.196 370.500 C 115.996 371.060,116.139 372.272,116.441 372.574 C 116.550 372.683,116.680 372.148,116.732 371.386 C 116.824 370.011,116.539 369.540,116.196 370.500 M77.200 372.597 C 77.200 373.168,78.638 376.000,78.928 376.000 C 79.114 376.000,79.197 375.865,79.112 375.700 C 79.027 375.535,78.650 374.725,78.274 373.900 C 77.671 372.578,77.200 372.007,77.200 372.597 M85.043 373.033 C 84.669 374.008,84.755 375.200,85.200 375.200 C 85.420 375.200,85.600 374.570,85.600 373.800 C 85.600 372.282,85.424 372.040,85.043 373.033 M115.559 377.300 C 115.344 377.820,115.330 380.400,115.542 380.400 C 115.694 380.400,115.847 379.680,115.882 378.800 C 115.933 377.499,115.777 376.772,115.559 377.300 M84.434 378.600 C 84.383 379.040,84.259 379.846,84.159 380.391 C 84.027 381.113,84.097 381.263,84.418 380.942 C 84.660 380.700,84.784 379.894,84.693 379.151 C 84.602 378.408,84.486 378.160,84.434 378.600 M82.615 381.976 C 82.487 382.182,82.747 382.324,83.191 382.291 C 83.636 382.257,84.000 382.088,84.000 381.915 C 84.000 381.473,82.896 381.521,82.615 381.976 M114.700 387.429 C 114.535 387.596,114.411 388.648,114.425 389.767 C 114.447 391.515,114.506 391.662,114.844 390.814 C 115.285 389.710,115.167 386.954,114.700 387.429 " stroke="none" fill="#059458" fill-rule="evenodd"></path></g></svg>